<?xml version="1.0" encoding="UTF-8"?>
<svg id="uuid-cdc5d2ae-84dd-4050-a295-4ef2afe9ac2c" data-name="Layer 1" xmlns="http://www.w3.org/2000/svg" viewBox="0 0 2425.69 1383.08">
  <defs>
    <style>
      .uuid-a91fa5c6-545f-4395-b578-a25908e7ef9e {
        fill: #fab688;
      }

      .uuid-a91fa5c6-545f-4395-b578-a25908e7ef9e, .uuid-00b582ab-9d71-4086-83db-477524a2666d, .uuid-54eb2c85-d7ac-4355-bfb3-2203cdda1d34, .uuid-98c711b9-41da-498a-98e8-00b4880ae180, .uuid-2b4a8493-fd66-48de-ac8d-f18bf9f121ef, .uuid-5b6890bd-56fb-46d9-9304-33b97474da71, .uuid-9afa0e00-dd59-410a-9d1c-15416fd1201f, .uuid-0fa74bdc-7a7c-4626-a6f6-3936eb4fdcce, .uuid-fd948a09-1b68-4e31-b99d-baf6d5e6277a, .uuid-4c4a45f0-b615-460f-b3b0-0c205a7babdb, .uuid-e0f8489c-7819-4fae-95e8-52c65d41970e, .uuid-62e22cb5-c911-4103-95fb-536a323da4bf, .uuid-d83957ec-ad03-4ad7-bf64-7395d1b31cec, .uuid-d04b4b44-5438-4c05-9a47-b7999bca4328, .uuid-d3c071a0-2be8-42e0-b499-26d6e725c999, .uuid-ef60d5b2-bac7-4f15-b3d7-3eaa15bccf5e, .uuid-135c06b2-5705-41ea-8b84-c620b984c9d4, .uuid-1db2686c-5a8b-4754-afe9-687fd98e09cd, .uuid-423d5354-d654-4627-836e-06d0e1413a9e, .uuid-4276b08c-904e-4063-8e3a-4066636ab6d0, .uuid-e6d664ea-dfe5-4534-b4fc-748164cde268, .uuid-2f5ac83e-80ad-4b5f-86ba-2aa653f91428, .uuid-019354de-4a59-47df-9a70-c8bff92ea507, .uuid-f339803a-8dd5-4fb1-9d0b-598049bfecf0, .uuid-12fcc3f5-4a1e-4629-9d66-746bd06e86fb, .uuid-2b1eaf5f-ade4-485f-b10a-453762016001, .uuid-db814d97-e264-4e61-977d-bc2a88b57962 {
        fill-rule: evenodd;
      }

      .uuid-00b582ab-9d71-4086-83db-477524a2666d {
        fill: #eff8f7;
      }

      .uuid-54eb2c85-d7ac-4355-bfb3-2203cdda1d34 {
        fill: #d0d2d3;
      }

      .uuid-98c711b9-41da-498a-98e8-00b4880ae180, .uuid-c00e2e18-07a2-4a72-a0cf-695513f9bd2f {
        fill: #9db2d9;
      }

      .uuid-2b4a8493-fd66-48de-ac8d-f18bf9f121ef {
        fill: #e0e8f5;
      }

      .uuid-5b6890bd-56fb-46d9-9304-33b97474da71 {
        fill: #fff;
      }

      .uuid-9afa0e00-dd59-410a-9d1c-15416fd1201f {
        fill: #f9b08c;
      }

      .uuid-0fa74bdc-7a7c-4626-a6f6-3936eb4fdcce {
        fill: #172b57;
      }

      .uuid-fd948a09-1b68-4e31-b99d-baf6d5e6277a, .uuid-63aa0ae8-28d9-478a-81e6-2d3607bbe9fd {
        fill: #859ac6;
      }

      .uuid-67838d15-b72e-458c-b605-d79065f23f96 {
        opacity: .63;
      }

      .uuid-4c4a45f0-b615-460f-b3b0-0c205a7babdb {
        fill: #223f81;
      }

      .uuid-e0f8489c-7819-4fae-95e8-52c65d41970e {
        fill: #ed7d57;
      }

      .uuid-62e22cb5-c911-4103-95fb-536a323da4bf {
        fill: #ecebe8;
      }

      .uuid-d83957ec-ad03-4ad7-bf64-7395d1b31cec {
        fill: #483c1f;
      }

      .uuid-d04b4b44-5438-4c05-9a47-b7999bca4328 {
        fill: #f27458;
      }

      .uuid-d3c071a0-2be8-42e0-b499-26d6e725c999 {
        fill: #20386f;
      }

      .uuid-ef60d5b2-bac7-4f15-b3d7-3eaa15bccf5e {
        fill: #0e2952;
      }

      .uuid-135c06b2-5705-41ea-8b84-c620b984c9d4 {
        fill: #6d96ce;
      }

      .uuid-1db2686c-5a8b-4754-afe9-687fd98e09cd {
        fill: #466fb5;
      }

      .uuid-423d5354-d654-4627-836e-06d0e1413a9e {
        fill: #8d181a;
      }

      .uuid-4276b08c-904e-4063-8e3a-4066636ab6d0 {
        fill: #a6a8ab;
      }

      .uuid-e6d664ea-dfe5-4534-b4fc-748164cde268 {
        fill: #f9af79;
      }

      .uuid-2f5ac83e-80ad-4b5f-86ba-2aa653f91428 {
        fill: #c4d1eb;
      }

      .uuid-090abecc-a9f0-472e-8851-1535fb7991ec, .uuid-019354de-4a59-47df-9a70-c8bff92ea507 {
        fill: #9c7357;
      }

      .uuid-109de2bb-89f6-44bc-b0ec-b6b7b9f0de90, .uuid-12fcc3f5-4a1e-4629-9d66-746bd06e86fb {
        fill: #b0c2e4;
      }

      .uuid-f339803a-8dd5-4fb1-9d0b-598049bfecf0 {
        fill: #d0a382;
      }

      .uuid-2b1eaf5f-ade4-485f-b10a-453762016001 {
        fill: #e5bb9a;
      }

      .uuid-db814d97-e264-4e61-977d-bc2a88b57962 {
        fill: #ced0d1;
      }
    </style>
  </defs>
  <path class="uuid-db814d97-e264-4e61-977d-bc2a88b57962" d="M1286.5,1383.08c616.5,0,1119.31-17.73,1119.31-39.46s-502.81-39.46-1119.31-39.46-1119.31,17.72-1119.31,39.46,502.82,39.46,1119.31,39.46Z"/>
  <path class="uuid-2b4a8493-fd66-48de-ac8d-f18bf9f121ef" d="M2062.46,72.03c-19.89,0-36.01-16.12-36.01-36.02S2042.57,0,2062.46,0s36.02,16.12,36.02,36.01-16.13,36.02-36.02,36.02h0ZM533.33,935.45h-192.41c-103.56,0-188.28,84.72-188.28,188.28h0c0,103.55,84.72,188.28,188.28,188.28H1967.86c167.69,0,304.88-137.2,304.88-304.87h0c0-167.69-137.2-304.88-304.88-304.89h0c-70.89,0-128.9-58.01-128.9-128.9h0c0-70.91,58.01-128.91,128.9-128.91h155.15c73.71,0,134.02-60.31,134.02-134.02h0c0-73.71-60.31-134.03-134.02-134.03h-196.19c-28.7,0-52.18-23.48-52.18-52.18h0c0-28.69,23.48-52.17,52.18-52.17h34.58c19.81,0,36.01-16.21,36.01-36.02h0c0-19.8-16.2-36.01-36.01-36.01h-226.93c-47.79,0-53.11,56.47-173.83,56.47h-279.94c-25.84,0-46.98,21.15-46.98,46.99h0c0,25.84,21.14,46.98,46.98,46.98h45.13c37.44,0,68.09,30.65,68.09,68.09h0c0,37.44-30.65,68.09-68.09,68.09h-135.82c-183.39,0-209.29,47.93-241.41,143.25-32.12,95.31-198.93,103-198.93,103h-228.09c-56.43,0-102.61,46.17-102.61,102.6h0c0,56.43,46.17,102.61,102.61,102.61h11.75c54.27,0,98.69,44.41,98.69,98.69h0c0,54.28-44.41,98.69-98.69,98.69h0Z"/>
  <g>
    <path class="uuid-62e22cb5-c911-4103-95fb-536a323da4bf" d="M2363.47,1160.88c.07,4.24,.31,7.81,.64,10.26-.33-2.46-.58-6.02-.64-10.26Z"/>
    <path class="uuid-98c711b9-41da-498a-98e8-00b4880ae180" d="M2234.14,846.66c-3.12-4.03-7.39-7.07-11.67-9.74-1.14-.71-2.8-.23-3.42,.94-3.32,6.18-6.38,12.52-10.18,18.42-1.25,1.95-3.04,4.53-4.62,5.68-.1,.07-.5,.26-.68,.37-.02-.03-.05-.07-.07-.12-.31-.46-.49-.95-.67-1.49-2.96-9.08,.63-18.82-1.7-27.96-1.23-4.84-4.31-9.9-7.8-13.42-3.79-3.84-8.88-5.63-11.24-10.8-.35-.78-1-1.15-1.69-1.22h-.46c-.86,.08-1.71,.55-2.19,1.24-5.46,7.86-13.12,15.98-14.57,25.82-1.3,8.73,3.42,16.01,8.46,22.64,2.43,3.21,4.84,6.47,6.73,10.03,1.04,1.97,2.84,5.51,.94,7.44-1.97,2.01-4.99-1.59-6.56-3.2-3.21-3.32-5.92-7.1-8.7-10.77-4.61-6.07-11.89-15.3-20.55-13.62-3.82,.74-5.37,4.68-5.58,8.12-.31,5.46,2.36,11.34,5.05,15.92,6.09,10.4,18.46,13.42,26.4,21.81,1.83,1.92,6.84,8.53,3.96,11.24-1,.94-3.34,.63-4.52,.44-2.91-.44-6.11-1.52-8.46-3.33-8.95-6.91-12.21-18.93-21.59-25.48-4.12-2.87-10.46-4.63-15.41-3.45-4.2,1-6.13,4.95-6.32,8.93-.22,4.82,1.97,9.8,4.4,13.83,2.81,4.66,6.68,8.55,11.4,11.25,9.48,5.39,21.45,6.06,27.75,15.97,.86,1.36,1.79,3.12,1.37,4.78-.33,1.28-2.15,1.68-3.22,1.92-4.85,1.07-11.23-.72-15.49-2.99-5.15-2.74-8.9-7.71-12.85-11.85-4.18-4.38-8.83-7.95-14.68-9.74-4.25-1.29-9.47-1.08-12.21,2.89-2.52,3.65-2.01,8.55-.98,12.6,1.36,5.36,4.28,10.33,7.87,14.49,3.87,4.49,9.99,7.04,15.46,8.88,5.71,1.91,11.63,3.07,17.26,5.2,1.49,.56,2.65,.95,4.28,1.07,1.74,.13,3.5,.04,5.21,.49,1.44,.37,.49,1.88,0,2.94-1.17,2.51-4.9,2.39-7.25,2.58-2.24,.17-4.44,.74-6.67,.76-2.57,.02-5.13-.46-7.66-.85-5.01-.77-10.31-1.65-15.27-.14-4.79,1.46-8.18,5.96-9.03,10.81-1.8,10.16,9.56,16.35,17.98,17.65,5.41,.82,10.31-.35,15.05-3.04,5.86-3.31,10.46-8.08,17.21-8.91,.44,2.71-.52,4.87-2.92,6.9-3.31,2.79-7.88,4.29-11.88,5.77-7.86,2.92-19.35,5.52-23.57,13.65-.52,.99-.41,2.22,.42,3.03,3.73,3.55,8.02,6.34,13.26,6.76,4.34,.35,8.59-1.68,12.11-4.01,6.3-4.18,11.73-10.68,18.8-13.61-.98,1.79-2.61,3-4.59,4.55-3.54,2.74-5.35,6.56-6.33,10.84-1.49,6.5,.76,13.53,8.4,13.57,4.16,.02,8.34-2.08,11.81-4.16,3.98-2.39,7.16-5.86,9.62-9.74,3.06-4.81,4.76-10.37,5.71-16.05,6.38,12.43,20.23,25.41,33.3,14.66,11.17-9.18-7.22-16.21-14.49-23.44,1.43,.59,2.82,1.32,4.14,2,3.8,1.94,7.48,4.09,11.43,5.7,7.37,3.01,15.64,2.71,20.06-4.87,3.81-6.55-4.09-9.59-8.94-11.05-3.95-1.19-11.35-2.47-14.21-6.45,9.75,1.07,20.6,2.28,29-3.35,3.82-2.56,8.39-7.48,8.85-12.27,.37-3.92-3.87-5.31-6.93-5.61-8.32-.82-16.42,2.84-24.76,2.58-2-.07-3.98-.28-5.94-.72-.74-.17-1.49-.37-2.17-.68-.26-.12-.53-.34-.72-.47,.05-.12,.12-.26,.24-.4,.74-.86,1.7-1.5,2.65-2.12,2.13-1.41,4.37-2.22,6.91-2.48,4.85-.52,9.69,.09,14.53-.76,5.43-.94,9.84-4.09,13.42-8.14,3.19-3.59,6.26-8.15,6.76-13.05,.53-5.06-2.55-8.49-7.07-10.22-12.65-4.84-20.06,8.23-29.08,14.16-2.39,1.57-5.24,2.61-7.95,3.45-1.12,.34-4.38,1.46-5.45,.59-.65-.52,1.51-3.96,1.91-4.61,1.82-2.95,4.14-5,7.12-6.71,7.54-4.32,16.75-5.66,22.69-12.49,3.92-4.48,6.99-12.07,3.17-17.54-4.06-5.79-13.08-4.22-18.18-.86-6.41,4.24-9.65,12.82-17.35,14.88-.67-3.66,.75-7.02,3.22-10.27,3.6-4.75,8.24-8.66,12.52-12.78,4.1-3.94,8.31-8.23,10.43-13.61,2.19-5.49,.79-11.05-2.76-15.62Z"/>
    <path class="uuid-98c711b9-41da-498a-98e8-00b4880ae180" d="M2424.81,1022.64c1.23-4.95,.97-10.18,.43-15.21-.15-1.33-1.55-2.33-2.85-2.09-6.91,1.21-13.79,2.72-20.79,3.4-2.3,.22-5.43,.42-7.3-.12-.12-.03-.53-.23-.72-.31,0-.03,.02-.07,.04-.13,.17-.53,.44-.97,.76-1.43,5.3-7.95,15.17-11.15,20.92-18.65,3.04-3.96,5.1-9.49,5.72-14.43,.67-5.36-1.07-10.45,1.53-15.5,.95-1.85-1.01-3.5-2.71-3.4-9.57,.58-20.67-.42-29.31,4.52-7.65,4.38-10.45,12.6-12.54,20.65-1.01,3.9-2.09,7.8-3.72,11.49-.9,2.03-2.58,5.63-5.26,5.34-2.8-.3-1.85-4.89-1.55-7.13,.62-4.57,1.91-9.05,3.07-13.51,1.92-7.37,4.66-18.8-2.01-24.57-2.95-2.54-7-1.32-9.83,.66-4.49,3.13-7.44,8.86-9.38,13.81-4.39,11.23,.89,22.8-.78,34.23-.39,2.63-2.48,10.66-6.38,10.08-1.37-.21-2.56-2.23-3.15-3.27-1.45-2.58-2.59-5.74-2.62-8.71-.12-11.3,7.32-21.29,6.65-32.73-.29-5.01-2.83-11.09-6.83-14.25-3.38-2.67-7.68-1.75-10.92,.57-3.93,2.81-6.48,7.62-8.14,12.02-1.92,5.1-2.6,10.54-1.78,15.92,1.62,10.77,8.5,20.6,4.61,31.69-.53,1.5-1.35,3.33-2.9,4.02-1.2,.54-2.65-.63-3.5-1.34-3.84-3.14-6.38-9.26-7.24-14.01-1.03-5.75,.54-11.76,1.37-17.44,.86-5.99,.79-11.86-1.44-17.55-1.62-4.14-5.01-8.12-9.83-7.81-4.42,.29-7.95,3.72-10.5,7.03-3.37,4.38-5.46,9.75-6.51,15.15-1.14,5.83,.65,12.21,2.6,17.65,2.02,5.66,4.78,11.02,6.59,16.77,.48,1.51,.88,2.67,1.8,4.02,.99,1.44,2.14,2.77,2.85,4.38,.59,1.36-1.18,1.55-2.3,1.81-2.7,.64-4.92-2.36-6.53-4.1-1.51-1.65-3.32-3.03-4.72-4.76-1.6-2.02-2.81-4.32-4.08-6.54-2.49-4.42-5.08-9.12-9.33-12.08-4.11-2.87-9.75-2.72-14.08-.4-9.1,4.87-6.93,17.62-2.73,25.04,2.69,4.75,6.65,7.87,11.7,9.94,6.22,2.55,12.82,3.21,17.65,8.01-1.86,2.01-4.15,2.6-7.23,1.97-4.24-.86-8.25-3.53-11.89-5.74-7.16-4.38-16.3-11.79-25.3-10.08-1.1,.21-2.01,1.05-2.11,2.21-.48,5.12-.02,10.22,2.89,14.59,2.42,3.64,6.63,5.72,10.64,7.03,7.17,2.36,15.64,2.61,22.32,6.34-2.01,.35-3.98-.18-6.41-.79-4.34-1.08-8.46-.14-12.43,1.74-6.03,2.85-10.15,8.97-5.46,14.99,2.56,3.28,6.79,5.26,10.58,6.7,4.33,1.65,9.02,2,13.61,1.54,5.68-.58,11.09-2.68,16.14-5.44-5.81,12.69-7.44,31.61,9.08,35.22,14.13,3.08,8.27-15.71,9.44-25.88,.43,1.49,.72,3.03,1,4.48,.82,4.19,1.42,8.41,2.59,12.51,2.2,7.66,7.56,13.97,16.25,12.74,7.49-1.06,5-9.14,3.13-13.85-1.51-3.84-5.08-10.45-3.73-15.16,5.2,8.32,10.96,17.59,20.59,20.71,4.37,1.42,11.06,1.97,15.11-.64,3.31-2.14,1.78-6.33,.12-8.92-4.51-7.04-12.39-11.13-17.35-17.85-1.18-1.61-2.25-3.31-3.13-5.11-.32-.68-.62-1.39-.81-2.12-.07-.27-.06-.63-.07-.86,.12-.03,.27-.07,.46-.06,1.13,.04,2.24,.4,3.31,.76,2.43,.81,4.46,2.06,6.24,3.9,3.4,3.49,5.92,7.66,9.57,10.94,4.1,3.68,9.3,5.2,14.71,5.51,4.79,.28,10.28-.13,14.44-2.77,4.3-2.71,5.09-7.26,3.65-11.88-4.03-12.94-18.88-10.66-29.12-14.08-2.71-.9-5.3-2.5-7.63-4.11-.96-.66-3.86-2.53-3.85-3.92,.02-.82,4.04-1.27,4.81-1.36,3.45-.39,6.48,.16,9.67,1.46,8.06,3.25,14.81,9.66,23.85,10.1,5.94,.3,13.81-1.99,15.74-8.37,2.04-6.76-4.77-12.89-10.58-14.8-7.3-2.42-16.04,.35-22.42-4.43,2.45-2.79,5.97-3.76,10.06-3.83,5.96-.11,11.9,1.12,17.78,1.92,5.64,.78,11.61,1.43,17.16-.22,5.67-1.7,9.16-6.23,10.56-11.83Z"/>
    <path class="uuid-98c711b9-41da-498a-98e8-00b4880ae180" d="M2085.96,884.91c-4.75-1.83-9.98-2.25-15.03-2.34-1.33-.02-2.5,1.24-2.43,2.57,.33,7.01,.95,14.02,.74,21.04-.07,2.3-.27,5.44-1.05,7.24-.06,.11-.3,.49-.4,.67-.03-.02-.07-.02-.12-.05-.51-.24-.92-.58-1.33-.95-7.22-6.26-9.15-16.46-15.86-23.1-3.55-3.52-8.78-6.26-13.59-7.49-5.23-1.35-10.5-.26-15.18-3.48-1.71-1.18-3.6,.56-3.72,2.25-.64,9.55-3.03,20.46,.79,29.63,3.37,8.15,11.17,11.97,18.89,15.05,3.73,1.5,7.48,3.07,10.93,5.15,1.9,1.14,5.26,3.27,4.63,5.89-.67,2.75-5.09,1.22-7.27,.63-4.46-1.19-8.74-3.04-13-4.75-7.07-2.83-18.06-7-24.63-1.11-2.9,2.6-2.21,6.79-.61,9.84,2.54,4.84,7.86,8.51,12.52,11.06,10.58,5.77,22.73,2,33.86,5.1,2.56,.71,10.26,3.81,9.19,7.61-.37,1.32-2.53,2.25-3.65,2.71-2.73,1.11-6.02,1.83-8.97,1.49-11.22-1.33-20.2-9.95-31.62-10.74-5.02-.34-11.36,1.41-15,4.98-3.08,3.02-2.7,7.4-.81,10.92,2.29,4.24,6.74,7.39,10.89,9.59,4.81,2.55,10.12,3.91,15.57,3.78,10.89-.25,21.52-5.84,32.01-.57,1.43,.72,3.14,1.75,3.64,3.38,.38,1.26-.97,2.55-1.78,3.3-3.61,3.42-10,5.16-14.81,5.41-5.83,.3-11.61-2.02-17.12-3.55-5.83-1.61-11.66-2.29-17.59-.8-4.31,1.08-8.69,3.96-8.99,8.76-.29,4.42,2.67,8.36,5.65,11.31,3.91,3.91,8.98,6.65,14.2,8.38,5.63,1.85,12.19,.9,17.83-.35,5.87-1.29,11.55-3.35,17.47-4.42,1.56-.29,2.76-.53,4.23-1.27,1.55-.8,3.02-1.78,4.7-2.27,1.42-.42,1.38,1.37,1.5,2.52,.29,2.75-2.97,4.58-4.89,5.95-1.83,1.3-3.42,2.91-5.33,4.07-2.19,1.34-4.64,2.25-7,3.22-4.69,1.92-9.68,3.89-13.17,7.73-3.36,3.72-3.93,9.33-2.18,13.92,3.68,9.64,16.61,9.11,24.5,5.88,5.06-2.07,8.65-5.6,11.34-10.35,3.31-5.85,4.8-12.31,10.18-16.49,1.77,2.09,2.05,4.44,1.04,7.42-1.4,4.09-4.55,7.74-7.21,11.05-5.24,6.55-13.76,14.69-13.18,23.84,.07,1.11,.79,2.11,1.92,2.38,5.03,1.13,10.14,1.32,14.85-1.03,3.91-1.94,6.5-5.85,8.32-9.67,3.25-6.81,4.56-15.18,9.11-21.34,.08,2.04-.69,3.92-1.6,6.26-1.62,4.18-1.22,8.38,.16,12.56,2.07,6.33,7.62,11.2,14.18,7.3,3.58-2.11,6.08-6.07,7.99-9.64,2.19-4.09,3.13-8.7,3.24-13.3,.16-5.7-1.25-11.35-3.36-16.7,11.86,7.36,30.42,11.37,36.09-4.56,4.85-13.61-14.54-10.18-24.48-12.64,1.53-.24,3.09-.32,4.57-.42,4.25-.29,8.52-.34,12.73-1,7.87-1.22,14.82-5.72,14.7-14.5-.11-7.57-8.43-6.12-13.35-4.87-4,1.02-11,3.72-15.5,1.79,8.91-4.1,18.84-8.65,23.15-17.8,1.96-4.16,3.35-10.73,1.27-15.08-1.69-3.54-6.05-2.56-8.83-1.24-7.55,3.58-12.6,10.88-19.89,14.95-1.75,.97-3.57,1.82-5.47,2.44-.72,.24-1.46,.45-2.2,.54-.29,.03-.63-.02-.86-.05-.02-.12-.03-.27,0-.46,.2-1.12,.69-2.16,1.18-3.19,1.11-2.3,2.61-4.15,4.65-5.69,3.9-2.92,8.36-4.89,12.07-8.1,4.17-3.6,6.33-8.58,7.33-13.89,.89-4.72,1.18-10.22-.91-14.67-2.16-4.62-6.56-5.97-11.33-5.13-13.34,2.36-12.96,17.37-17.65,27.11-1.24,2.57-3.14,4.93-5.05,7.04-.77,.87-2.99,3.51-4.37,3.32-.81-.12-.75-4.17-.73-4.94,.04-3.46,.97-6.41,2.65-9.41,4.25-7.58,11.46-13.47,13.04-22.38,1.04-5.86-.23-13.95-6.32-16.67-6.45-2.87-13.39,3.11-16.02,8.63-3.32,6.92-1.67,15.96-7.23,21.68-2.46-2.79-2.97-6.41-2.53-10.47,.64-5.93,2.62-11.66,4.16-17.4,1.48-5.49,2.87-11.33,1.94-17.04-.95-5.83-5.02-9.88-10.41-11.98Z"/>
    <path class="uuid-12fcc3f5-4a1e-4629-9d66-746bd06e86fb" d="M2328.72,953.79c-.68-5.05-2.85-9.82-5.21-14.29-.63-1.18-2.29-1.59-3.43-.9-5.97,3.69-11.8,7.62-18.04,10.83-2.06,1.05-4.9,2.39-6.84,2.58-.13,.02-.58-.02-.78-.03,0-.04,0-.07,0-.13-.04-.55,.05-1.08,.17-1.62,2-9.34,9.99-15.96,12.56-25.05,1.37-4.81,1.23-10.71-.02-15.52-1.35-5.22-4.85-9.31-4.29-14.98,.2-2.06-2.24-2.87-3.77-2.15-8.69,4.06-19.38,7.25-25.57,15.03-5.5,6.89-5.08,15.57-4.04,23.82,.49,3.99,.94,8.02,.79,12.05-.09,2.22-.31,6.19-2.91,6.9-2.73,.75-3.54-3.87-4.08-6.05-1.11-4.48-1.56-9.11-2.13-13.69-.93-7.56-2.61-19.19-10.94-22.09-3.67-1.27-6.99,1.36-8.89,4.24-3.02,4.56-3.65,10.99-3.63,16.3,.06,12.06,9.24,20.86,11.91,32.1,.62,2.59,1.64,10.82-2.21,11.73-1.35,.3-3.21-1.13-4.15-1.89-2.29-1.85-4.52-4.38-5.64-7.13-4.27-10.45-1.06-22.49-5.89-32.86-2.12-4.56-6.73-9.26-11.61-10.73-4.13-1.24-7.78,1.21-9.94,4.56-2.62,4.06-3.22,9.47-3.14,14.18,.1,5.44,1.48,10.75,4.23,15.46,5.49,9.41,15.51,16,15.98,27.74,.07,1.6-.02,3.59-1.21,4.82-.92,.94-2.7,.38-3.75,.05-4.74-1.51-9.34-6.26-11.89-10.36-3.08-4.95-3.83-11.12-5.17-16.71-1.41-5.88-3.64-11.31-7.81-15.78-3.04-3.25-7.66-5.69-12.03-3.64-4,1.88-6.02,6.39-7.16,10.41-1.52,5.32-1.48,11.08-.46,16.48,1.09,5.84,5.11,11.1,8.92,15.45,3.97,4.51,8.51,8.48,12.32,13.15,1,1.24,1.8,2.16,3.16,3.08,1.45,.99,3.01,1.79,4.26,3.03,1.05,1.04-.53,1.88-1.48,2.53-2.26,1.59-5.45-.39-7.57-1.41-2.02-.96-4.21-1.58-6.15-2.69-2.23-1.27-4.21-2.97-6.2-4.57-3.95-3.17-8.09-6.59-13.14-7.77-4.88-1.15-10.06,1.06-13.23,4.81-6.65,7.89,.06,18.94,6.7,24.29,4.26,3.44,9.09,4.87,14.54,4.93,6.72,.08,13.1-1.75,19.36,.93-.98,2.56-2.9,3.95-6,4.5-4.26,.76-8.97-.24-13.16-.95-8.26-1.42-19.51-4.95-27.24-.02-.94,.6-1.46,1.73-1.14,2.83,1.44,4.95,3.74,9.52,8.07,12.5,3.59,2.48,8.27,2.87,12.49,2.61,7.54-.45,15.5-3.35,23.1-2.34-1.74,1.06-3.77,1.3-6.25,1.64-4.44,.6-7.92,2.99-10.92,6.2-4.54,4.88-6.12,12.1,.46,15.96,3.59,2.1,8.26,2.39,12.31,2.33,4.64-.07,9.13-1.48,13.21-3.6,5.07-2.62,9.33-6.57,13-11.01-.71,13.93,4.75,32.11,21.45,29.37,14.26-2.34,1.88-17.65-.78-27.54,.95,1.23,1.78,2.55,2.59,3.81,2.3,3.58,4.41,7.28,7.02,10.66,4.87,6.3,12.17,10.2,19.8,5.85,6.57-3.76,1.28-10.34-2.2-14.04-2.82-3.01-8.57-7.83-9.06-12.7,7.9,5.81,16.68,12.3,26.78,11.65,4.57-.3,11.01-2.25,13.8-6.18,2.29-3.21-.68-6.53-3.17-8.32-6.79-4.88-15.63-5.77-22.7-10.19-1.71-1.06-3.32-2.24-4.8-3.59-.55-.51-1.09-1.06-1.54-1.67-.16-.23-.28-.57-.36-.78,.08-.07,.21-.16,.39-.21,1.07-.39,2.23-.45,3.36-.52,2.55-.15,4.89,.26,7.24,1.32,4.44,1.99,8.32,4.94,12.92,6.63,5.17,1.92,10.57,1.41,15.7-.3,4.56-1.51,9.51-3.92,12.4-7.9,2.99-4.13,2.06-8.64-.99-12.4-8.52-10.53-21.48-2.94-32.26-2.34-2.86,.16-5.84-.36-8.61-1-1.14-.26-4.52-.94-5.02-2.22-.3-.77,3.28-2.67,3.96-3.04,3.05-1.63,6.09-2.25,9.52-2.22,8.69,.05,17.33,3.51,25.9,.58,5.63-1.92,12.09-6.94,11.53-13.58-.6-7.04-9.2-10.22-15.3-9.86-7.67,.45-14.77,6.26-22.47,4.15,1.25-3.49,4.17-5.68,7.94-7.26,5.5-2.3,11.47-3.36,17.23-4.78,5.53-1.35,11.32-2.96,15.86-6.53,4.66-3.67,6.23-9.18,5.45-14.9Z"/>
    <path class="uuid-12fcc3f5-4a1e-4629-9d66-746bd06e86fb" d="M2291.78,905.41c-2.9,12.58-5.41,25.25-9.01,37.66-3.72,12.73-9,24.51-16.27,35.61-15,22.91-34.12,42.77-49.58,65.37-.64,.94-.53,1.85-.02,2.53-2.98,5.63-4.71,12.03-5.96,18.14-2.17,10.66-2.82,21.61-3.26,32.46-.53,13.27-.42,26.45,.2,39.72,.72,15.58,1.75,31.17,1.09,46.78-.04,.91-.09,1.81-.14,2.71-.18,3.22,4.83,3.21,5.01,0,.86-15.23-.02-30.47-.77-45.7-.67-13.56-.97-27.06-.49-40.64,.38-10.5,.91-21.02,2.7-31.38,1.63-9.43,4.24-20.09,11.35-26.98,1-.99,.91-2.22,.28-3.1,14.44-19.64,31.01-37.69,44.4-58.14,7.17-10.93,12.27-22.74,16.04-35.25,3.79-12.63,6.3-25.61,9.26-38.47,.72-3.14-4.11-4.47-4.84-1.32Z"/>
    <path class="uuid-12fcc3f5-4a1e-4629-9d66-746bd06e86fb" d="M2210.09,1187.14c-2.71-24.35-13.92-46.14-25.51-67.31-11.51-21-23.62-42.28-27.16-66.32-.46-3.19-5.29-1.83-4.82,1.33,7.04,47.97,47.08,83.85,52.49,132.29,.35,3.17,5.36,3.2,5,0Z"/>
    <path class="uuid-98c711b9-41da-498a-98e8-00b4880ae180" d="M2283.68,1073.05c-21.42,9.35-42.41,23.66-56.79,42.29-7.85,10.17-12.46,21.74-15.36,33.86-1.09-12.64-3.41-25.15-5.82-37.6-5.64-29.03-9.99-58.19-12.72-87.66-1.09-11.69-1.89-23.4-2.43-35.12-.15-3.22-5.17-3.22-5.01,0,1.5,32.54,5.24,64.92,10.29,97.1,3.42,21.77,9.19,43.27,10.86,65.27-1.88-11.89-4.72-23.62-8.37-35.06-5.21-16.36-12.25-32.26-21.37-46.83,.05-.62-.13-1.28-.66-1.87-.61-.69-1.24-1.38-1.88-2.05-2.25-3.41-4.63-6.74-7.13-9.97-1.11-1.44-2.72-.93-3.56,.24-3.83-2.94-7.92-5.55-12.34-7.84-10.28-5.32-23.1-8.77-28.03-20.44-1.25-2.96-5.56-.4-4.33,2.53,4.9,11.59,16.87,15.9,27.32,20.97,9.38,4.57,17.31,10.42,24.4,17.91,10,15.22,17.47,32.14,22.99,49.45,6.7,21,10.54,43.08,10.59,65.14,0,.12,0,.23,.02,.34-.34,1.63,.95,2.71,2.32,2.81,.67,2.27,4.71,1.96,4.93-.91,1.83-23.68,4.53-48.54,19.7-67.85,14-17.82,34.3-31.41,54.93-40.41,2.95-1.28,.4-5.6-2.53-4.33Z"/>
    <path class="uuid-2f5ac83e-80ad-4b5f-86ba-2aa653f91428" d="M2133.86,904.87c-4.54-2.3-9.71-3.22-14.72-3.79-1.33-.16-2.62,1-2.68,2.32-.35,7.01-.39,14.05-1.28,21.02-.3,2.29-.81,5.4-1.74,7.1-.07,.11-.35,.46-.46,.63-.03-.02-.07-.04-.12-.07-.48-.28-.85-.65-1.23-1.06-6.58-6.93-7.52-17.26-13.55-24.53-3.19-3.84-8.13-7.08-12.8-8.78-5.08-1.84-10.43-1.27-14.79-4.93-1.58-1.34-3.64,.21-3.92,1.89-1.55,9.44-4.98,20.06-2.07,29.57,2.57,8.44,9.97,13,17.36,16.81,3.57,1.86,7.14,3.77,10.38,6.18,1.78,1.32,4.93,3.76,4.05,6.31-.93,2.67-5.19,.72-7.3-.07-4.33-1.62-8.39-3.87-12.49-5.98-6.76-3.51-17.31-8.72-24.4-3.49-3.13,2.3-2.84,6.54-1.55,9.72,2.06,5.08,7,9.24,11.39,12.22,9.97,6.78,22.42,4.19,33.21,8.35,2.48,.95,9.84,4.78,8.41,8.46-.51,1.28-2.75,2-3.9,2.34-2.83,.84-6.18,1.25-9.07,.62-11.04-2.4-19.14-11.85-30.43-13.74-4.95-.83-11.44,.3-15.41,3.5-3.36,2.71-3.41,7.11-1.87,10.78,1.87,4.45,5.98,8,9.91,10.6,4.54,3,9.71,4.87,15.13,5.26,10.87,.81,21.99-3.73,31.92,2.53,1.37,.85,2.96,2.05,3.29,3.72,.26,1.29-1.21,2.44-2.08,3.12-3.92,3.05-10.46,4.18-15.27,3.96-5.82-.27-11.34-3.13-16.7-5.2-5.65-2.16-11.38-3.39-17.44-2.48-4.39,.66-9.01,3.08-9.79,7.85-.71,4.38,1.86,8.58,4.52,11.81,3.53,4.25,8.29,7.49,13.32,9.7,5.43,2.39,12.04,2.07,17.78,1.38,5.97-.71,11.81-2.21,17.82-2.71,1.59-.12,2.8-.26,4.33-.86,1.63-.64,3.18-1.46,4.91-1.8,1.46-.28,1.24,1.5,1.26,2.66,.02,2.76-3.41,4.28-5.45,5.45-1.94,1.11-3.69,2.57-5.7,3.54-2.3,1.11-4.83,1.79-7.27,2.53-4.86,1.46-10.02,2.94-13.85,6.42-3.7,3.38-4.82,8.91-3.52,13.64,2.73,9.96,15.64,10.68,23.82,8.22,5.23-1.57,9.15-4.74,12.29-9.2,3.87-5.5,5.97-11.79,11.73-15.44,1.55,2.25,1.61,4.62,.31,7.48-1.79,3.94-5.27,7.26-8.24,10.31-5.84,6.01-15.12,13.3-15.43,22.45-.03,1.12,.59,2.19,1.68,2.55,4.9,1.61,9.97,2.29,14.89,.42,4.07-1.55,7.03-5.19,9.21-8.82,3.9-6.47,6-14.67,11.14-20.36-.12,2.03-1.06,3.84-2.19,6.08-2.02,4-2.02,8.21-1.06,12.5,1.46,6.51,6.5,11.89,13.41,8.65,3.77-1.77,6.64-5.45,8.88-8.83,2.57-3.85,3.95-8.35,4.52-12.92,.69-5.66-.16-11.41-1.74-16.94,11.1,8.47,29.17,14.25,36.36-1.05,6.14-13.09-13.49-11.54-23.15-14.95,1.55-.08,3.11-.02,4.6,.02,4.26,.14,8.51,.49,12.77,.25,7.95-.45,15.31-4.27,16.03-13.02,.62-7.54-7.81-6.91-12.81-6.14-4.08,.62-11.32,2.64-15.61,.29,9.26-3.22,19.59-6.79,24.76-15.49,2.35-3.94,4.38-10.35,2.73-14.88-1.35-3.69-5.77-3.13-8.67-2.09-7.86,2.84-13.6,9.62-21.25,12.96-1.83,.8-3.73,1.46-5.68,1.91-.72,.17-1.5,.3-2.24,.32-.29,0-.62-.09-.86-.13,0-.12,0-.28,.05-.46,.3-1.09,.89-2.09,1.47-3.06,1.32-2.18,2.99-3.88,5.17-5.21,4.16-2.54,8.78-4.07,12.8-6.9,4.5-3.19,7.12-7.93,8.64-13.12,1.33-4.62,2.15-10.05,.5-14.7-1.7-4.8-5.95-6.58-10.78-6.2-13.5,1.06-14.58,16.05-20.18,25.28-1.48,2.44-3.6,4.61-5.7,6.53-.86,.78-3.33,3.2-4.67,2.88-.8-.19-.34-4.22-.25-4.98,.38-3.45,1.6-6.29,3.55-9.12,4.96-7.14,12.7-12.3,15.14-21.01,1.6-5.72,1.12-13.9-4.67-17.2-6.15-3.5-13.63,1.8-16.79,7.04-3.97,6.57-3.21,15.71-9.29,20.88-2.17-3.01-2.33-6.65-1.5-10.65,1.21-5.85,3.73-11.37,5.82-16.92,2-5.33,3.95-11,3.57-16.77-.38-5.91-4.03-10.32-9.2-12.92Z"/>
    <polygon class="uuid-12fcc3f5-4a1e-4629-9d66-746bd06e86fb" points="2266.93 1334.28 2158.95 1334.28 2123.61 1194.65 2299.82 1194.65 2266.93 1334.28"/>
    <rect class="uuid-c00e2e18-07a2-4a72-a0cf-695513f9bd2f" x="2111.83" y="1176.5" width="197.31" height="18.15"/>
    <polygon class="uuid-98c711b9-41da-498a-98e8-00b4880ae180" points="2211.71 1194.65 2123.61 1194.65 2158.95 1334.28 2211.71 1334.28 2211.71 1194.65"/>
    <rect class="uuid-63aa0ae8-28d9-478a-81e6-2d3607bbe9fd" x="2111.83" y="1176.5" width="99.89" height="18.15"/>
    <polygon class="uuid-98c711b9-41da-498a-98e8-00b4880ae180" points="2266.93 1336.38 2158.95 1336.38 2123.61 1317.53 2299.82 1317.53 2266.93 1336.38"/>
    <polygon class="uuid-fd948a09-1b68-4e31-b99d-baf6d5e6277a" points="2211.71 1317.53 2123.61 1317.53 2158.95 1336.38 2211.71 1336.38 2211.71 1317.53"/>
  </g>
  <g>
    <path class="uuid-12fcc3f5-4a1e-4629-9d66-746bd06e86fb" d="M250.7,576.62c-28.19,26.6-40.99,58.46-38.4,95.6,66.66,45.39,101.13,87.91,103.4,127.55-78.31-69.71-137.16-69.53-163.65-26.72,19.55,23.66,33.23,105.3,28.5,142.86-8.34,66.37,9.73,125.92,59.88,148.31,11.51,25.76,23.59,39.34,36.24,40.75-12.14,74.35-22.36,149.8-30.68,226.39,8.48,4.36,20.6,3.89,27.05-.48,2.59-29.85,4.49-50.91,6.43-65.02,5.14-55.59,10.92-109.35,17.35-161.28,3.1-.36,6.17-.87,9.22-1.53,58.64-12.31,36.18-48.91,89.84-59.9,33.02-6.77,63.05-34.66,70.51-59.59-34.37-10.84-77.65-22.4-121.53-14.17,22.81-32.05,69.13-29.65,131.98-21.91,23.74-46.15,57.46-41.93,44.1-114.15-18.63-100.66,47.21-128.56,25.07-249.73-32.38-12.25-75.24-10.82-128.58,4.3,22.62-33.47,65.55-47.32,128.81-41.56-13.14-35.48-13.04-81.38-6.78-100.95-23.48-16.98-47.23-16.89-71.25,.27,10.74-18.41,24.65-28.93,41.73-31.55-.85-15.78-7.63-33.4-20.37-52.88-21.05,.49-44.37,5.16-69.96,13.99,11.66,7.68,15.43,21.51,11.32,41.48-14.03-16.49-34.76-22-62.18-16.52-5.78,71.95-69.54,101.14-70.62,132.13,37.54,33.06,59.53,69.12,65.96,108.17-38.25-32.8-76.05-54.09-113.41-63.85Z"/>
    <path class="uuid-98c711b9-41da-498a-98e8-00b4880ae180" d="M245.99,1331.36c8.31-76.59,18.54-152.04,30.68-226.39,43.3-280.8,118.92-570.84,184.73-692.2-87.82,206.98-148.46,491.35-181.92,853.1-1.94,14.11-3.84,35.17-6.43,65.02-6.45,4.37-18.58,4.84-27.05,.48Z"/>
    <path class="uuid-2f5ac83e-80ad-4b5f-86ba-2aa653f91428" d="M357.41,395.47c27.21,34.74,36.21,72.8,26.98,114.17-82.78,39.78-128.82,81.79-138.12,126.03,100.03-65.17,166.26-54.95,188.8-2.25-26.04,23.31-55.32,112.91-56.39,156.01-1.9,76.15-32.37,140.12-92.65,156.8-17.34,27.05-33.25,40.29-47.73,39.71,1.02,85.77-.3,172.48-3.97,260.11-10.28,3.47-23.86,.89-30.38-5.13,2.16-34.04,3.6-58.09,3.82-74.31,3.66-63.46,6.29-124.97,7.89-184.53-3.43-.94-6.8-2.03-10.12-3.29-63.93-23.84-32.42-61.22-90.96-82.74-36.03-13.23-65.1-49.74-69.26-79.08,40.54-6.36,91.23-12,139.24,4.71-20.23-39.97-72.79-45.14-144.87-47.11-18.88-56-57.57-56.99-30.23-136.03,38.1-110.16-31.29-152.78,14.26-285.45,38.54-8.27,86.55,.63,144.03,26.72-19.78-41.54-65.76-64.44-137.97-68.7,20.84-37.73,28.52-89.42,24.81-112.51,29.32-15.13,56.05-10.98,80.17,12.43-8.96-22.55-22.83-36.77-41.62-42.63,3.64-17.62,14.28-36.31,31.93-56.07,23.61,4.14,49.08,13.36,76.4,27.65-14.44,6.66-21.04,21.59-19.81,44.78,18.6-16.19,42.87-18.86,72.82-8.03-5.72,81.99,61.09,125.7,57.04,160.77-47.89,30.84-78.78,67.7-92.66,110.58,48.64-30.42,94.83-47.96,138.55-52.61Z"/>
    <path class="uuid-12fcc3f5-4a1e-4629-9d66-746bd06e86fb" d="M234.33,1246.05c3.67-87.63,4.99-174.34,3.97-260.11-.98-323.51-36.79-662.94-90.25-810.79,63.67,247.98,83.58,578.48,59.72,991.46-.22,16.22-1.66,40.26-3.82,74.31,6.52,6.02,20.09,8.6,30.38,5.13Z"/>
    <path class="uuid-109de2bb-89f6-44bc-b0ec-b6b7b9f0de90" d="M159.6,1154.45h212.16c9.56,0,17.32,7.76,17.32,17.32v48.71c0,9.56-7.76,17.31-17.31,17.31H159.61c-9.56,0-17.32-7.76-17.32-17.32v-48.71c0-9.56,7.76-17.31,17.31-17.31Z"/>
    <polygon class="uuid-12fcc3f5-4a1e-4629-9d66-746bd06e86fb" points="161.5 1237.79 369.87 1237.79 349.41 1345.49 181.96 1345.49 161.5 1237.79"/>
    <polygon class="uuid-98c711b9-41da-498a-98e8-00b4880ae180" points="369.87 1237.79 161.5 1237.79 165.21 1257.27 366.17 1257.27 369.87 1237.79"/>
  </g>
  <g>
    <path class="uuid-2b4a8493-fd66-48de-ac8d-f18bf9f121ef" d="M1898.21,171.18V903.9c0,32.52-26.48,58.97-59,58.97H549.59c-32.46,0-58.9-26.44-58.9-58.97V171.18c0-32.52,26.44-58.94,58.9-58.94H1839.23c13.89,0,27.37,4.92,37.98,13.83,13.33,11.24,20.99,27.72,21,45.11Z"/>
    <polygon class="uuid-12fcc3f5-4a1e-4629-9d66-746bd06e86fb" points="1406.11 1184.01 982.78 1184.01 1004.83 1086.82 1042.6 920.2 1047.02 900.68 1341.87 900.68 1346.27 920.2 1384.07 1086.82 1406.11 1184.01"/>
    <polygon class="uuid-98c711b9-41da-498a-98e8-00b4880ae180" points="1384.07 1086.82 1004.83 1086.82 1022.73 1007.81 1366.17 1007.81 1384.07 1086.82"/>
    <path class="uuid-2f5ac83e-80ad-4b5f-86ba-2aa653f91428" d="M490.68,171.18c0-32.52,26.44-58.97,58.9-58.97H1839.2c13.93,0,27.41,4.94,38,13.86,13.34,11.24,20.99,27.69,20.99,45.11V903.9c0,20.41-10.45,38.45-26.27,49.05-9.36,6.28-20.6,9.92-32.72,9.92H549.59c-2.75,0-5.48-.2-8.14-.58-28.61-3.98-50.76-28.66-50.76-58.39V171.18h0ZM1906.17,91.69c-14.94-12.56-33.13-20.65-52.31-23.38-4.84-.72-9.72-1.05-14.66-1.05H549.59c-57.27,0-103.85,46.63-103.85,103.92V903.9c0,30.11,12.87,57.29,33.39,76.26,12.45,11.54,27.69,20.05,44.61,24.41,8.27,2.12,16.92,3.24,25.84,3.24H1839.2c1.1,0,2.19-.02,3.24-.04,3.2-.09,6.35-.36,9.46-.72,5.21-.65,10.3-1.68,15.27-3.04,2.99-.85,5.92-1.81,8.78-2.9,3.84-1.43,7.53-3.11,11.13-4.98,1.95-1,3.87-2.08,5.74-3.2v-.02c5.63-3.38,10.92-7.31,15.76-11.7,13.6-12.2,23.94-27.92,29.62-45.71,1.13-3.46,2.06-7.04,2.81-10.66,.62-2.99,1.12-6.04,1.43-9.15,.44-3.87,.69-7.82,.69-11.8V171.18c0-30.69-13.46-59.63-36.96-79.49Z"/>
    <path class="uuid-2f5ac83e-80ad-4b5f-86ba-2aa653f91428" d="M1920.68,861.57v42.33c0,44.95-36.49,81.45-81.46,81.45H549.61c-44.98,0-81.39-36.5-81.39-81.45v-42.33H1920.68Z"/>
    <path class="uuid-98c711b9-41da-498a-98e8-00b4880ae180" d="M1474.03,1204.78H914.86c-6.44,0-11.65-5.21-11.65-11.65s5.21-11.65,11.65-11.65h559.17c6.43,0,11.65,5.21,11.65,11.65,0,1.97-.47,3.82-1.34,5.43-1.94,3.69-5.83,6.22-10.31,6.22Z"/>
    <path class="uuid-5b6890bd-56fb-46d9-9304-33b97474da71" d="M1245.69,934.92c0,28.3-22.93,51.26-51.25,51.26s-51.23-22.96-51.23-51.26c0-28.29,22.94-51.23,51.23-51.23s51.25,22.93,51.25,51.23Z"/>
  </g>
  <path class="uuid-12fcc3f5-4a1e-4629-9d66-746bd06e86fb" d="M617.79,196.99h298.36c5.53,0,10.56,2.25,14.2,5.9,3.64,3.64,5.9,8.67,5.9,14.2v232.02c0,5.53-2.26,10.56-5.9,14.2-3.64,3.64-8.67,5.9-14.2,5.9h-298.36c-5.52,0-10.56-2.25-14.2-5.9-3.64-3.64-5.9-8.67-5.9-14.2V217.09c0-5.53,2.26-10.56,5.9-14.2,3.64-3.64,8.67-5.9,14.2-5.9h0Zm298.36,6.9h-298.36c-3.62,0-6.92,1.5-9.31,3.88-2.39,2.39-3.87,5.69-3.87,9.31v232.02c0,3.62,1.49,6.93,3.87,9.31,2.39,2.39,5.69,3.88,9.31,3.88h298.36c3.62,0,6.92-1.49,9.31-3.88,2.39-2.39,3.88-5.69,3.88-9.31V217.09c0-3.62-1.49-6.93-3.88-9.31-2.39-2.39-5.69-3.88-9.31-3.88Z"/>
  <path class="uuid-12fcc3f5-4a1e-4629-9d66-746bd06e86fb" d="M1048.92,196.99h298.36c5.53,0,10.55,2.25,14.2,5.9,3.64,3.64,5.9,8.67,5.9,14.2v232.02c0,5.53-2.26,10.56-5.9,14.2-3.64,3.64-8.67,5.9-14.2,5.9h-298.36c-5.53,0-10.56-2.25-14.2-5.9-3.64-3.64-5.9-8.67-5.9-14.2V217.09c0-5.53,2.26-10.56,5.9-14.2,3.64-3.64,8.67-5.9,14.2-5.9h0Zm298.36,6.9h-298.36c-3.62,0-6.92,1.5-9.31,3.88-2.39,2.39-3.88,5.69-3.88,9.31v232.02c0,3.62,1.49,6.93,3.88,9.31,2.39,2.39,5.69,3.88,9.31,3.88h298.36c3.62,0,6.92-1.49,9.31-3.88,2.38-2.39,3.87-5.69,3.87-9.31V217.09c0-3.62-1.49-6.93-3.87-9.31-2.39-2.39-5.69-3.88-9.31-3.88Z"/>
  <path class="uuid-12fcc3f5-4a1e-4629-9d66-746bd06e86fb" d="M1480.05,196.99h298.36c5.53,0,10.56,2.25,14.2,5.9,3.64,3.64,5.9,8.67,5.9,14.2v232.02c0,5.53-2.26,10.56-5.9,14.2-3.64,3.64-8.67,5.9-14.2,5.9h-298.36c-5.53,0-10.56-2.25-14.2-5.9-3.64-3.64-5.9-8.67-5.9-14.2V217.09c0-5.53,2.26-10.56,5.9-14.2,3.64-3.64,8.67-5.9,14.2-5.9h0Zm298.36,6.9h-298.36c-3.62,0-6.93,1.5-9.31,3.88-2.38,2.39-3.87,5.69-3.87,9.31v232.02c0,3.62,1.49,6.93,3.87,9.31,2.39,2.39,5.69,3.88,9.31,3.88h298.36c3.62,0,6.92-1.49,9.31-3.88,2.38-2.39,3.87-5.69,3.87-9.31V217.09c0-3.62-1.49-6.93-3.87-9.31-2.39-2.39-5.69-3.88-9.31-3.88Z"/>
  <path class="uuid-12fcc3f5-4a1e-4629-9d66-746bd06e86fb" d="M618.7,531.15h298.35c5.53,0,10.56,2.25,14.2,5.89,3.64,3.64,5.9,8.68,5.9,14.2v232.02c0,5.53-2.26,10.56-5.9,14.2-3.64,3.64-8.67,5.9-14.2,5.9h-298.35c-5.53,0-10.56-2.25-14.2-5.9-3.64-3.63-5.9-8.67-5.9-14.2v-232.02c0-5.53,2.26-10.56,5.9-14.2,3.64-3.64,8.67-5.89,14.2-5.89h0Zm298.35,6.91h-298.35c-3.62,0-6.92,1.48-9.31,3.87-2.39,2.39-3.88,5.69-3.88,9.31v232.02c0,3.62,1.48,6.92,3.88,9.31,2.39,2.39,5.69,3.88,9.31,3.88h298.35c3.62,0,6.92-1.49,9.31-3.88,2.39-2.39,3.88-5.69,3.88-9.31v-232.02c0-3.62-1.49-6.92-3.88-9.31-2.39-2.39-5.69-3.87-9.31-3.87Z"/>
  <path class="uuid-12fcc3f5-4a1e-4629-9d66-746bd06e86fb" d="M1049.83,531.15h298.36c5.53,0,10.56,2.25,14.2,5.89,3.64,3.64,5.91,8.68,5.91,14.2v232.02c0,5.53-2.27,10.56-5.91,14.2-3.63,3.64-8.67,5.9-14.2,5.9h-298.36c-5.53,0-10.56-2.25-14.2-5.9-3.64-3.63-5.9-8.67-5.9-14.2v-232.02c0-5.53,2.26-10.56,5.9-14.2,3.64-3.64,8.67-5.89,14.2-5.89h0Zm298.36,6.91h-298.36c-3.62,0-6.92,1.48-9.31,3.87-2.39,2.39-3.88,5.69-3.88,9.31v232.02c0,3.62,1.49,6.92,3.88,9.31,2.39,2.39,5.69,3.88,9.31,3.88h298.36c3.62,0,6.93-1.49,9.31-3.88,2.39-2.39,3.88-5.69,3.88-9.31v-232.02c0-3.62-1.5-6.92-3.88-9.31-2.38-2.39-5.69-3.87-9.31-3.87Z"/>
  <path class="uuid-12fcc3f5-4a1e-4629-9d66-746bd06e86fb" d="M1480.97,531.15h298.35c5.53,0,10.56,2.25,14.2,5.89,3.64,3.64,5.91,8.68,5.91,14.2v232.02c0,5.53-2.27,10.56-5.91,14.2-3.64,3.64-8.67,5.9-14.2,5.9h-298.35c-5.53,0-10.56-2.25-14.2-5.9-3.64-3.63-5.89-8.67-5.89-14.2v-232.02c0-5.53,2.25-10.56,5.89-14.2,3.64-3.64,8.68-5.89,14.2-5.89h0Zm298.35,6.91h-298.35c-3.62,0-6.92,1.48-9.31,3.87-2.39,2.39-3.87,5.69-3.87,9.31v232.02c0,3.62,1.48,6.92,3.87,9.31,2.39,2.39,5.69,3.88,9.31,3.88h298.35c3.62,0,6.93-1.49,9.31-3.88,2.39-2.39,3.88-5.69,3.88-9.31v-232.02c0-3.62-1.5-6.92-3.88-9.31-2.38-2.39-5.69-3.87-9.31-3.87Z"/>
  <path class="uuid-d3c071a0-2be8-42e0-b499-26d6e725c999" d="M697.23,260.68c-10.63-15.56,12.35-19.56,12.13-36.59-.16-11.74,7.19-23.97,4.99-35.68-4.5-23.96,4.84-31.22,4.9-33.05,.56-18.15,11.42-18.62,22.23-24.74,19.19-10.87,35.87,2.43,41.3,2.78,27.73,1.82,12.37,13.73,24.79,24.47,10.22,8.85,5.38,15.55,4.33,20.88-.47,2.39-2.7,12.26,4.38,17.25,10.38,7.31-.25,26.84,5.87,28.69,23.56,7.14,14.08,10.08,13.44,26.54-.21,5.26-5.28,9.26-8.6,13.13-40.57-12.7-68.48,37.79-129.76-3.68Z"/>
  <path class="uuid-5b6890bd-56fb-46d9-9304-33b97474da71" d="M733.33,238.82c1.2-2.79,4.4-4.53,5.48-5.4,11.75,6.35,24.19,10.27,37.25,10.37-.47,7.47-1.57,15.31-3.06,23.7-21.57-16.79-34.8-26.34-39.67-28.66Z"/>
  <path class="uuid-5b6890bd-56fb-46d9-9304-33b97474da71" d="M785.32,237.87c3.18,6.7,5.33,12.96,6.46,18.79-3.42-6.16-7.25-9.93-15.73-12.87,2.71-2.85,2.48-6.55,3.58-9.52,3.05,1.88,4.95,3.08,5.69,3.6Z"/>
  <path class="uuid-1db2686c-5a8b-4754-afe9-687fd98e09cd" d="M794.56,237.93c32.61,82.87,5.12,76.44-65.5,1.79-4.14,.99-7.93,2.2-11.37,3.64,9.17,8.47,12.6,22.65,10.28,42.52-1.38,15.39-2.91,30.35-4.57,44.88,4.02,9.08,6.08,18.36,6.43,28.37,.31,8.74-.69,18.05-2.81,28.25-3.34,16-9.44,34.22-17.65,56.02,49.44,16.84,91.76,17.03,126.96,.57-20.42-44.87-17.69-58.79-15.38-88.81,2.31-48.73,32.01-33.43-17.37-115.38-3.38-1.05-6.33-1.6-9.02-1.85Z"/>
  <path class="uuid-135c06b2-5705-41ea-8b84-c620b984c9d4" d="M776.05,243.79c-.47,7.47-1.57,15.31-3.06,23.7-21.57-16.79-34.8-26.34-39.67-28.66-1.46,.28-2.88,.58-4.26,.9,70.62,74.64,98.11,81.08,65.5-1.79-3.39-.32-6.36-.18-9.23-.06,3.18,6.7,5.33,12.96,6.46,18.79-3.42-6.16-7.25-9.93-15.73-12.87Z"/>
  <path class="uuid-135c06b2-5705-41ea-8b84-c620b984c9d4" d="M757.59,359.9c-13.43,.04-25.95-.46-37.58-1.51,3.03-23,5.69-47.16,7.97-72.5,2.32-19.87-1.11-34.05-10.28-42.52-12.21,5.12-19.98,13.16-23.29,24.12-7.22,23.29-6.33,110.01,1.51,117.85,9.91,4.34,30.85,3.45,62.82-2.66-2.22-6.51-2.6-14.11-1.15-22.78Z"/>
  <path class="uuid-a91fa5c6-545f-4395-b578-a25908e7ef9e" d="M765.68,363.14c-1.82,.21-4.69,.39-8.62,.55-.62,5.72-.39,10.94,.72,15.65,3.43-.63,7.76-1.54,13.03-2.72,9.35,2.39,20.61,2.27,33.78-.39,9.15-3.51,11.94-9.97,8.35-19.35-14.32,1.67-22.9,1.14-25.72-1.61,5-2.55,6.78-5.49,5.31-8.83-14.08,5.16-23.03,10.73-26.86,16.7Z"/>
  <path class="uuid-54eb2c85-d7ac-4355-bfb3-2203cdda1d34" d="M814.26,337.24l100.2-15.18-21.64,43.27-100.39,15.75,1.6-3.22c3.36-.34,6.88-.89,10.55-1.63,9.15-3.51,11.94-9.97,8.35-19.35-3.24,.38-6.19,.64-8.85,.8l10.17-20.44Z"/>
  <path class="uuid-4276b08c-904e-4063-8e3a-4066636ab6d0" d="M812.92,348.57l-4.4,8.78h0c1.4-.12,2.88-.28,4.42-.46,3.11,8.15,1.43,14.09-5.06,17.82l82.38-12.88,8.41-16.84c-11.52,4-23.25,6.51-35.18,7.58-2.43,2.82-6.22,4.89-9.31,4.89-2.86,0-4.28-1.79-3.79-4.31-12.29,0-24.78-1.53-37.47-4.57Z"/>
  <path class="uuid-4276b08c-904e-4063-8e3a-4066636ab6d0" d="M781.32,378.21l11.12,2.87,1.6-3.22c-4.51,.47-8.74,.58-12.72,.35Z"/>
  <path class="uuid-4276b08c-904e-4063-8e3a-4066636ab6d0" d="M792.44,381.08l-11.12-2.87c-3.74-.21-7.24-.75-10.51-1.59-3.53,.79-6.65,1.46-9.35,2.01l27.74,9.1,27.38-4.66,76.43-13-.19-4.75-73.38,11.52h0l-27.01,4.24Z"/>
  <path class="uuid-135c06b2-5705-41ea-8b84-c620b984c9d4" d="M838.71,333.54c-3.88-3.66-7.17-7.94-9.86-12.84-1.58,4.41-3.5,9.1-5.06,15.1l14.92-2.26Z"/>
  <path class="uuid-135c06b2-5705-41ea-8b84-c620b984c9d4" d="M803.58,239.78c11.59,19.23,18.82,33.11,23.08,43.72,4.19-32.9-1.81-40.3-23.08-43.72Z"/>
  <path class="uuid-d3c071a0-2be8-42e0-b499-26d6e725c999" d="M717.17,445.95c-1.95,4.02-3.66,8.84-5.14,14.44,1.44,.72,2.89,1.41,4.35,2.09h117.64c-1.16-5.88-2.41-11.18-3.72-15.87-32.06,12.99-69.77,12.77-113.12-.66Z"/>
  <path class="uuid-a91fa5c6-545f-4395-b578-a25908e7ef9e" d="M738.81,233.41c11.75,6.35,24.19,10.27,37.25,10.37,2.38-2.51,2.5-5.68,3.24-8.42,.04-.15,.08-.3,.12-.45-1.99-2.73-3.34-4.78-2.13-9.54,.02-.07,.04-.15,.06-.22,14.14-4.75,22.91-28.52,17.17-42.5,.29-4.67,.74-9.52,1.35-14.54-20.94,6.07-34.1,5.74-49.43-5.05-2.69,6.98-4.03,10.96-2.43,18.33,.35,2.55,1.65,7.98-1.76,8.48-1.57-8.84-4.79-13.73-10.76-11.61-5.32,8.51-2.15,19.24,10.63,21.46,3.75,7.74,5.37,13.04,4.85,15.89,.41,4.83-3.82,11.33-7,16.09-.41,.61-.79,1.18-1.16,1.73Z"/>
  <path class="uuid-e0f8489c-7819-4fae-95e8-52c65d41970e" d="M777.41,224.87c-8.55,.96-12.44,.91-20.36-2.25,4.63,5.01,11.86,8,20.16,8.47-.45-2.08-.36-4.1,.2-6.23Z"/>
  <path class="uuid-4276b08c-904e-4063-8e3a-4066636ab6d0" d="M860.6,346.36c2.41,0,3.23,1.95,1.84,4.35-1.39,2.4-4.46,4.35-6.87,4.35s-3.22-1.95-1.83-4.35c1.39-2.4,4.46-4.35,6.86-4.35Z"/>
  <path class="uuid-135c06b2-5705-41ea-8b84-c620b984c9d4" d="M1215.55,320.37c.13,1.11,.98,2.24,1.43,3.22,.12,.25,.44,.44,.44,.68,.18,15.28-12.86,11.82-39.13-10.41-8.37,3.26-15.96,6.6-22.76,10.01-16.88,1.5-41.96-8.92-75.24-31.25-25.64-32.14-46.17-52.58-61.59-61.29-4.02,6.01-8.88,10.16-14.56,12.44,17.29,27.92,35.9,52.11,55.83,72.51,23.26,28.93,50.77,56.43,82.52,82.52,10.73,23.67,15.77,44.9,15.12,63.68h95.44c3.52-37.15,3.17-70.83-.72-94.32,29.45-28.86,50.9-51.93,64.33-69.17,12.43-19.14,23.36-46.75,32.78-82.84-7.16-6.73-13.73-9.15-19.73-7.28-16.61,25.04-29.04,48.19-37.32,69.49-23.92,17.06-41.31,30.2-52.18,39.43-6.61,1.89-15.89,2.73-24.66,2.57Z"/>
  <path class="uuid-a91fa5c6-545f-4395-b578-a25908e7ef9e" d="M1019.05,190.69c-6.15,20.04-6.62,34.09-1.41,42.17-3.27,4.46-7.05,7.77-11.34,9.94-3.57-3.95-7.3-7.84-12.12-9.18-17.57-11.07-21.26-16.07-27.16-29.81-1.32-8.36,4.14-16.15,16.38-23.36,11.93,19.8,20.12,27.69,24.57,23.66,1.97-11.19,5.66-15.67,11.08-13.42Z"/>
  <path class="uuid-a91fa5c6-545f-4395-b578-a25908e7ef9e" d="M1317.89,170.19c12.34,16.94,17.36,30.08,15.06,39.41,4.55,3.16,9.19,5.06,13.96,5.71,2.08-4.89,4.34-9.79,8.47-12.62,13-16.18,14.87-22.12,15.98-37.02-1.47-8.33-9.17-13.92-23.09-16.76-4.84,22.61-10.02,32.73-15.54,30.38-5.5-9.94-10.45-12.98-14.84-9.09Z"/>
  <path class="uuid-a91fa5c6-545f-4395-b578-a25908e7ef9e" d="M1178.61,314.12c.89-1.92,1.53-3.64,1.9-5.03-.89-2.27-1.86-5.15-2.88-8.64-15.43-9.62-17.78-17.09-7.05-22.41,2.25,1.14,5.13,4.84,8.64,11.08,2.6-.21,4.52-1.62,5.77-4.23-3.52-10.63-5.88-19.28-7.08-25.95,6.98-11.29,24.24-13.55,47.29-11.47,1.3,6.06,2.43,12.49,3.37,19.29,4.2,3.58,4.21,17.45,1.1,33.56,2.22,9-3.19,14.18-16.23,15.51-.07,3.22,3.27,8.15,3.5,8.59,.09,.19,.25,.37,.47,.55-.23,14.42-13.16,10.8-38.81-10.85Z"/>
  <path class="uuid-d3c071a0-2be8-42e0-b499-26d6e725c999" d="M1225.21,247.47c-23.05-2.08-40.31,.17-47.29,11.47,1.2,6.67,3.56,15.32,7.08,25.95-1.25,2.61-3.17,4.02-5.77,4.23-3.51-6.24-6.4-9.94-8.64-11.08-10.73,5.31-8.38,12.79,7.05,22.41,1.02,3.49,1.99,6.37,2.88,8.64-13.64-2.5-25.43-14.16-27.22-19.32-16.98-30.48,.09-44.29,9.32-49.44,2.95-30.96,48.72-5.49,70.53-21.2,9.38,11.95-1.02,27.8-7.95,28.35Z"/>
  <path class="uuid-e0f8489c-7819-4fae-95e8-52c65d41970e" d="M1194.47,312.66c5.38,2.41,11.7,3.46,18.98,3.17-.06,2.82,2.49,6.95,3.28,8.23-9.41,.26-16.83-3.54-22.26-11.39Z"/>
  <path class="uuid-a91fa5c6-545f-4395-b578-a25908e7ef9e" d="M1632.38,264.58c-2.79-2.37-4.5-10.4-4.7-17.51,.34-2.65,.58-5.95,.72-9.91,13.73-14.32,14.21-22.84,1.43-25.59-2.07,1.82-4.13,6.51-6.16,14.04-2.8,.48-5.21-.49-7.23-2.92,.86-12.18,1.04-21.96,.51-29.33-10.41-10.07-29.27-7.81-53.07,.58,.25,6.75,.79,13.86,1.61,21.29-3.47,4.92,.24,19.58,7.86,35.77,.07,10.12,7.17,14.13,21.32,12.04l-1.12,3.56c-4.42,.62-8.9,1.34-13.45,2.17-23.47,47.56,21.56,66.87,64.66-1.87-3.41-.59-7.53-1.37-12.38-2.34Z"/>
  <path class="uuid-d3c071a0-2be8-42e0-b499-26d6e725c999" d="M1560.96,204.97c21.31-1.11,36.91-18.77,56.28-2.46,.53,7.37,.06,7.99-.81,20.18,2.01,2.43,4.42,3.4,7.23,2.92,2.04-7.53,4.09-12.22,6.16-14.04,12.77,2.75,12.3,11.27-1.43,25.59-.14,3.96-.38,7.26-.72,9.91,.21,7.11,1.92,15.14,4.71,17.51,4.84,.97,8.96,1.74,12.36,2.34,5.82,1.29,11.35,2.8,16.51,4.56,12.66,4.29,23.03,9.97,29.74,17.03,6.77,21,12.14,46.3,16.11,75.89,5.17-2.79,10.03-6.8,14.97-13.47,20.25-27.41-15.96-7.39-11.86-50.77,2.98-31.37-37.28-20.74-39.6-59.44-3.81-63.16-29.94-70.18-42.5-71.15-15.07-13.92-55.16-24.14-72.64-5.86-15.5,16.23-10.95,40.48,5.49,41.27h0Zm103.8,138.96c.86,12.54,2.19,23.98,4,34.32-.91,.42-1.81,.86-2.73,1.32-4.98,2.52-10.41,2.62-15.78,1.31,2.95-14.17,7.78-26.48,14.51-36.95h0Zm-100.26-118.99c1,6.88,4.19,16.2,8.84,26.07,.07,10.12,7.17,14.13,21.32,12.04l-1.11,3.56c-4.42,.62-8.91,1.34-13.46,2.17-11,1.94-17.08,5.58-18.96,8.1-3.82,2.06-7.06,4.05-9.84,5.96,.84-5.29,3.22-10.4,6.22-15.31,7.06-11.63-11.75-3.49-3.49-21.63,4.74-10.39,7.37-14.54,10.47-20.97Z"/>
  <path class="uuid-d3c071a0-2be8-42e0-b499-26d6e725c999" d="M1557.81,413.73c-9.9,16.88-18.79,34.66-23.89,47.75,2.39,1.53,6.38-.37,8.87,1.01h137.56l2.32-1.32c-6.75-16.07-18.7-32.08-35.88-48.03-53.72,23.75-83.39,23.95-88.98,.59Z"/>
  <path class="uuid-1db2686c-5a8b-4754-afe9-687fd98e09cd" d="M1734.82,389.09c-9.85,10.81-17.41,19.07-22.69,24.81-3.82-51.72-10.86-93.52-21.14-125.4-6.71-7.07-17.08-12.74-29.74-17.03-13.53,2.97-14,88.43,3.5,72.45,3.7,54.14,16.25,87.74,37.64,100.81,12.5,2.29,25.15-4.44,37.97-20.18l-9.6-5.89,4.05-29.56Z"/>
  <path class="uuid-1db2686c-5a8b-4754-afe9-687fd98e09cd" d="M1558.46,387.33c-5.72-41.93-41.04-62.44,2.19-109.57,.1-.28,.26-.57,.49-.88-18.32,9.91-23.66,17.84-26.22,26.63-10.32,35.52-14.2,76.9-17.54,122.54-13.23,12.16-26.39,26.72-41.59,52.31l23.13,7.92,3.78,3.08c14.92-13.56,28.59-26.38,40.75-49.43,6.97-15.52,11.84-33.01,15.02-52.61Z"/>
  <path class="uuid-4c4a45f0-b615-460f-b3b0-0c205a7babdb" d="M1551.75,362.81c-1.83,47.66-12.1,83.96-30.82,108.93,7.96-8.6,15.49-18.5,22.5-31.81,6.97-15.52,11.84-33.01,15.02-52.61-1.23-9-3.82-17.02-6.7-24.52Z"/>
  <path class="uuid-135c06b2-5705-41ea-8b84-c620b984c9d4" d="M1580.1,268.78c-23.47,47.57,21.56,66.87,64.66-1.87,5.81,1.29,11.34,2.8,16.5,4.56-4.08,.89-6.96,9.25-8.54,20.06-3.64,23.89-4.74,43.7-3.29,59.43-8.23,17.68-12.95,39.68-14.15,65.97,.26,.25,.53,.51,.78,.76-46.95,19.11-73.03,17.78-78.25-3.96,1.77-9.79,1.74-18.47,.65-26.39-1.23-9-3.82-17.02-6.7-24.52-10.56-27.45-25.06-48.04,8.89-85.05,.1-.28,.26-.57,.49-.88,1.88-2.52,7.96-6.16,18.96-8.1Z"/>
  <path class="uuid-4c4a45f0-b615-460f-b3b0-0c205a7babdb" d="M1635.28,416.93c1.2-26.3,5.92-48.29,14.15-65.97-1.45-15.73-.35-35.53,3.29-59.43-3.65,25.14-.2,63.56,12.04,52.39-6.72,10.47-11.56,22.78-14.51,36.96-2.06,9.85-3.21,20.6-3.45,32.26-3.69,1.63-7.27,3.15-10.73,4.56-.25-.25-.52-.51-.78-.76Z"/>
  <path class="uuid-135c06b2-5705-41ea-8b84-c620b984c9d4" d="M1596.6,277.27c9.32,1.85,24.81-4.23,35.78-12.69,4.84,.97,8.96,1.74,12.37,2.34-43.1,68.74-88.12,49.43-64.66,1.87,4.55-.83,9.03-1.55,13.45-2.17,.76,4.8,1.46,8.54,3.06,10.66Z"/>
  <path class="uuid-1db2686c-5a8b-4754-afe9-687fd98e09cd" d="M1734.82,389.09c-11.42,19.85-14.46,36.38-9.15,49.61,10.71-6.27,20.27-14.9,28.67-25.9-13.95-6.42-20.46-14.31-19.53-23.7Z"/>
  <path class="uuid-1db2686c-5a8b-4754-afe9-687fd98e09cd" d="M1475.78,478.37c21.44-11.47,34.2-11.34,38.3,.39-4.57,3.14-10.46,9.35-17.14,20.63-5.87-2.92-13.43-8.55-21.15-21.02Z"/>
  <path class="uuid-a91fa5c6-545f-4395-b578-a25908e7ef9e" d="M1475.78,478.37c6.37,10.3,12.64,15.92,17.94,19.21-8.22,7.63-16.78,16.11-25.62,27.09,5.51,11.1,2.02,14.32-3.64,17-2.45,1.22-14.85,3.59-19.79-.89-5.48-2.94-.4-21.96,10.21-22.59,7.45-15.77,14.37-28.81,20.89-39.82Z"/>
  <path class="uuid-a91fa5c6-545f-4395-b578-a25908e7ef9e" d="M1750.2,410.73c-11.09-6.02-16.22-13.24-15.38-21.64,8.69-9.53,19.17-21.04,31.44-34.52,7.27-6.54,15.01-9.61,23.2-9.2-.81,2.29-2.75,4.35-5.77,6.18,10.02,1.4,16.71-.77,20.05-6.51,4.19-2.67,11.38,14.53,4.27,22.39-8.67,9.57-18.99,9.61-35.85,.26-7.37,17.22-14.69,31.57-21.96,43.05Z"/>
  <path class="uuid-e0f8489c-7819-4fae-95e8-52c65d41970e" d="M1594.66,263.05c7.23-1.46,13.06-4.01,17.5-7.66-5.91,6.36-12.12,10.1-18.61,11.22l1.11-3.56Z"/>
  <path class="uuid-d3c071a0-2be8-42e0-b499-26d6e725c999" d="M1620.2,784.1c-2.54,1.78-4.99,6-7.28,12.69h116.16c-2.65-4.91-5.49-9.4-8.47-13.51-41.04,6.1-76.66,5.68-100.4,.81Z"/>
  <path class="uuid-135c06b2-5705-41ea-8b84-c620b984c9d4" d="M1748.79,752.26c30.7-119-2.73-162.35-68.48-162.87-4.33,11.55-12.09,23.36-23.28,35.43-4.61-8.81-9.62-15.52-15.04-20.12-5.77,3.78-11.56,9.72-17.36,17.82-1-12.33,.16-22.97,3.48-31.92-23.65,1.64-60.53,13.35-110.62,35.13-27.53-9.06-62.07-19.25-100.87-27.48l-.13,.1,.28,.71c-3.07,3.1-6.68,10.95-7.78,17.2-.62-.16-1.02-.27-1.47-.38l-.65,1.86c32.38,20.44,63.9,32.42,108.79,44.68,28.49-.23,57.3,.89,86.32-9.3,.41,85.58,6.44,121.17,18.23,131,11.32,2.32,25.33,3.64,41.36,3.7,1.05,1.94,1.81,5.12,2.58,8.18,7.53-2.34,15.83-6.19,24.96-9.16l2.52-1.02c25.17-10.2,42.55-20.62,57.18-33.54Z"/>
  <path class="uuid-4c4a45f0-b615-460f-b3b0-0c205a7babdb" d="M1725.89,769.01c-10.68,6.44-22.9,12.23-36.8,17.81,10.04-.73,20.59-1.9,31.52-3.53,2.29-4.89,4.01-9.5,5.28-14.28h0Zm-100.89-141.3c2.58-4.34,5.5-8.66,8.49-12.65-.6-.59-1.09-1.15-1.47-1.69-2.45,2.66-4.9,5.69-7.35,9.11,.07,1.78,.17,3.53,.34,5.23h0Zm-23.03,25.39c-.12-4.95,.26-11.92,1.14-20.92-2.04,9.77-6.18,17.89-12.39,24.34,3.74-.97,7.49-2.09,11.25-3.41h0Zm55.06-28.29c-2.11-4.03-4.31-7.62-6.58-10.77-.43,.36-1.4,1.43-2.78,2.52,2.14,5.2,4.46,11.38,6.69,17.92,11.11-13.97,21.64-31.73,25.95-45.1-4.33,11.55-12.1,23.36-23.28,35.43h0Zm4.52,163c-7.39-.04-14.36-.34-20.84-.87,2.26-2.28,4.57-4.22,6.93-5.81l-1.05-1.85c15.64-12.98,39.59-31.54,65.35-49.34-3.71-18.5-3.12-40.97,1.77-67.41-1.32,23.24,2.34,50.22,6.96,69.55-14.8,9.32-34.15,22.54-67.22,45.53,3.11,2.64,5.81,6.04,8.11,10.2Z"/>
  <path class="uuid-ef60d5b2-bac7-4f15-b3d7-3eaa15bccf5e" d="M1652.45,743.18c-2.17-33.51-4.82-74.29-7.47-124.88,2.82-1.43,4.79-3.69,5.46-4.26-2.7-3.73-5.51-6.85-8.46-9.34-3.32,2.18-6.65,5.07-9.98,8.67,1.02,1.44,2.81,3.08,5.37,4.97-2.47,31.13-5,73.56-7.61,127.28,1.42,4.98,5.72,10.08,11.29,13.93,3.62-2.93,9.67-8.32,11.38-16.36Z"/>
  <path class="uuid-5b6890bd-56fb-46d9-9304-33b97474da71" d="M1657.03,624.82c11.18-12.07,18.94-23.88,23.28-35.43-2.43-4.61-6.28-9.25-8.97-10.54-13,13.56-21.28,21.16-29.21,25.77-.05,.02-.09,.05-.14,.08-.1-.36-.2-.72-.31-1.09-2.09-7.16-5.13-15.47-6.45-23.74-3.73,2.66-5.08,6.68-7.12,10.72-3.32,8.96-4.48,19.6-3.48,31.93,2.47-3.44,4.92-6.48,7.38-9.15,3.33-3.6,6.65-6.49,9.98-8.67,2.94,2.49,5.76,5.61,8.46,9.34,2.27,3.16,4.47,6.74,6.58,10.77Z"/>
  <path class="uuid-4c4a45f0-b615-460f-b3b0-0c205a7babdb" d="M1699.66,662.08c.42-1.88,.54-4.01,.36-6.42-11.03,.97-20.91,.23-29.6-2.31-.94,1.75-1.35,3.64-1.24,5.68,6.7,2.51,16.86,3.53,30.48,3.06Z"/>
  <path class="uuid-9afa0e00-dd59-410a-9d1c-15416fd1201f" d="M1671.2,578.92c-2.02-2.5-3.73-5.84-5.1-10.02,.73-2.23,1.48-5.05,2.26-8.45,14.23-10.13,16.05-17.42,5.44-21.9-2.09,1.23-4.63,4.94-7.63,11.14-2.51-.06-4.42-1.29-5.77-3.73,2.76-10.39,4.52-18.82,5.28-25.28-7.35-10.42-24.02-11.57-46-8.24-.9,5.89-1.6,12.12-2.11,18.69-3.83,3.67-3.03,16.97,.88,32.23-1.6,8.76,3.89,13.4,16.46,13.93l.18,2.66c1.32,8.27,4.35,16.57,6.45,23.73l.44,1.02c7.93-4.62,16.2-12.21,29.21-25.78Z"/>
  <path class="uuid-d3c071a0-2be8-42e0-b499-26d6e725c999" d="M1619.68,512.44c21.98-3.33,38.65-2.18,46,8.24-.77,6.46-2.53,14.9-5.28,25.28,1.35,2.43,3.27,3.67,5.77,3.73,3-6.19,5.54-9.9,7.63-11.14,10.6,4.48,8.78,11.78-5.44,21.9-.78,3.4-1.53,6.22-2.26,8.45,12.92-3.19,23.55-15.04,24.96-20.1,14.52-30.19-2.67-42.44-11.8-46.85-4.61-29.5-47.01-2.43-68.84-16.22-8.3,11.99,2.6,26.58,9.26,26.71Z"/>
  <path class="uuid-e0f8489c-7819-4fae-95e8-52c65d41970e" d="M1651.53,575.22c-4.02,1.12-11.97,2.2-16.62,2.06l.18,2.66c.25,1.6,.58,3.21,.94,4.8,.05,0,.1-.03,.15-.05,7.19-2.51,12.31-5.68,15.35-9.48Z"/>
  <path class="uuid-ef60d5b2-bac7-4f15-b3d7-3eaa15bccf5e" d="M1633.49,615.06c-.54-.53-1.03-1.09-1.47-1.69,4.83-5.14,8.28-7.93,10.33-8.37,1.46,2.64,3.31,6.68,5.32,11.57,1.38-1.09,2.35-2.16,2.78-2.52-2.59-3.59-5.29-6.6-8.1-9.05-2.67,2.17-5.62,5.53-8.86,10.07Z"/>
  <path class="uuid-a91fa5c6-545f-4395-b578-a25908e7ef9e" d="M1416.75,599.05c-2.88-7.72-6.42-12.19-10.58-13.39-9.37-4.17-17.65-8.86-24.89-14.06-2.91,3.56-.59,7.26,6.94,11.1,3.15,1.74,5.43,3.46,6.84,5.16-7.85,3.7-11.66,8.36-11.43,14.01,1.11,4.34,2.52,6.84,4.23,7.49,.79,.3,2.58,.93,4.29-.99,4.28,8.5,9.78,8.84,14.13,7.23,1.23,.26,1.63,.37,2.7,.66,1.1-6.25,4.71-14.1,7.77-17.2Z"/>
  <path class="uuid-a91fa5c6-545f-4395-b578-a25908e7ef9e" d="M1657.96,779.37c-7.08,2.89-13.58,6.19-19.49,9.9-5.29,8.89-6.69,15.81-4.2,20.76,4.24,4.55,8.7,2.55,12.26,1.62-.02-4.66,1.32-8.46,4.03-11.4,4.18,.99,6.89-.06,8.14-3.14,1.71-.49,3.26-.93,4.64-1.29,1.41-6.36-.09-10.03-2.35-13.02-.97-1.18-2.01-2.29-3.04-3.43Z"/>
  <path class="uuid-d3c071a0-2be8-42e0-b499-26d6e725c999" d="M671.55,614.44c-5.63-27.09,7.33-53.97,32.13-64.11-.17-15.4,4.89-34.99,15.57-45.53,21.06-20.88,61.23-28.17,76.73-1.55,20.46,11.42,36.55,36.13,30.45,58.7,19.83,20.27,12.29,56.95-16.61,74.24,.46,22.77-11.72,45.33-31.87,55.06-4.84,2.36-12.4,5.6-13.36,6.61,1.27-1.21-14.93,43.31-65.2,22.91-51.31-20.74-61.29-79.24-27.85-106.34Z"/>
  <path class="uuid-e6d664ea-dfe5-4534-b4fc-748164cde268" d="M868.35,796.8c-1.35-3.13-2.57-5.87-3.54-7.85h0c-8.01-17.83-15.3-36.55-16.14-38.44l-10.06-82.62-32.69-8.38s9.83,91.81,10.87,96.34c.44,1.93,18.05,34.3,21.69,40.95h29.87Z"/>
  <path class="uuid-d3c071a0-2be8-42e0-b499-26d6e725c999" d="M827.43,796.8l-13.42-22.51c-7.95,2.49-12.33-20.94-20.68-20-6.3,.68-10.63,2.16-16.47,2.51-11.01,.67-17.71,22.15-29.52,20.8-.06,.67-2.35,6.14-2.52,6.61-1.53,4.1-4.06,8.09-7.09,12.59h89.7Z"/>
  <path class="uuid-1db2686c-5a8b-4754-afe9-687fd98e09cd" d="M808.61,709.22s10.52-1.28,20.6-4.79c6.05-2.1,16.13-6.7,16.13-6.7,0,0-5.66-47.35-19.89-76.07-5.47-11.01-11.67-17.03-19.07-18.91-.57-.14,2.23,106.46,2.23,106.46Z"/>
  <path class="uuid-135c06b2-5705-41ea-8b84-c620b984c9d4" d="M826.9,655.65c-2.14-7.7-6.9-17.76-9.63-24.79-4.61-11.82-5.99-22.82-10.07-27.56-2.2-2.56-30.38-2.15-33.86-2.49-1.42-.21-7.08,.2-12.52,.53v-.07c-3.2,.4-34.97,2.83-39.58,4.8-22.89,22.16-33.95,51.88-51.16,84.45,0,0,12.88,7.29,23.16,11.89,4.47,1.96,13.03,5.2,13.03,5.2,0,0,10.83-18.65,16.99-26.81l2.85-6.15c.2-.13,1.24-1.21,1.53-.53,.46,1.14,19.77,103.49,19.77,103.49,0,0,53.88,4.99,67.66-1.55,0,0,2.53-68.51,7.61-88.56,1.87-7.44,7.63-19.46,4.2-31.82Z"/>
  <path class="uuid-e6d664ea-dfe5-4534-b4fc-748164cde268" d="M756.97,569.79s4.4,23.92,3.51,33.31c-.88,9.45,3.36,39.85,22.36,39.92,19.03,.13,6.1-31.55,4.31-40.81-1.78-9.19-4.69-44.86-4.69-44.86l-25.49,12.43Z"/>
  <path class="uuid-e0f8489c-7819-4fae-95e8-52c65d41970e" d="M783.64,570.88c-.3-7.84-1.73-14.05-1.73-14.05l-24.94,12.96s.89,4.94,1.8,11.15c11.17,2.36,20.02-2.84,24.87-10.07Z"/>
  <path class="uuid-e6d664ea-dfe5-4534-b4fc-748164cde268" d="M756.43,500.42s-10.73,3.78-16.55,15.27c-5.82,11.48-7.75,43.71,15.76,56.07,23.49,12.36,39-10.47,37.52-30.88-1.45-20.46-7.96-47.22-36.73-40.46Z"/>
  <path class="uuid-e6d664ea-dfe5-4534-b4fc-748164cde268" d="M800.14,535.14c.63,5.34-1.25,9.86-4.23,10.13-2.95,.27-5.85-3.78-6.47-9.11-.63-5.27,1.26-9.8,4.24-10.07,2.95-.27,5.86,3.78,6.46,9.05Z"/>
  <path class="uuid-e6d664ea-dfe5-4534-b4fc-748164cde268" d="M741.95,544.06c2.06,5.13,1.04,10.53-2.31,12.02-3.32,1.56-7.71-1.41-9.77-6.55-2.09-5.07-1.04-10.47,2.28-12.02,3.36-1.49,7.72,1.42,9.79,6.56Z"/>
  <path class="uuid-1db2686c-5a8b-4754-afe9-687fd98e09cd" d="M751.51,678.76l-1.08,1.49c.48,4.66-2.05,8.24-6.65,9.38l-58.43,82.28,36.1,24.88h61.73l41.16-57.98c2.6-3.65,1.69-8.72-2.02-11.22l-70.81-48.84Z"/>
  <path class="uuid-00b582ab-9d71-4086-83db-477524a2666d" d="M743.78,689.63h0l67.22,46.34c3.88,2.71,8.54,2.77,10.39,.21,.92-1.28,.96-3.04,.28-4.79-.67-1.69-2.06-3.45-4.02-4.8l-67.21-46.34h0c.42,4.6-2.14,8.18-6.65,9.38Z"/>
  <path class="uuid-e6d664ea-dfe5-4534-b4fc-748164cde268" d="M674.95,693.15c4.7,2.57,12,6.42,18.3,9.25,2.99,1.28,7.79,3.17,10.66,4.25-6.91,12.83-13.45,26.08-12.6,28.78,.75,2.43,62.43,47.83,62.43,47.83l12.33-1.62s21.72,2.43,22.22,5c.52,2.43-9.17,1.82-10.45,2.15-.7,.21-2.16,.67-3.36,1.49,1.95,.87,4.53,2.1,7,3.04-1.81,1.04-3.49,2.2-5.03,3.47h-38.25c-19.81-10.36-83.25-46.45-84.26-53.66-.63-4.59,10.38-28.37,21.01-49.98Z"/>
  <path class="uuid-e6d664ea-dfe5-4534-b4fc-748164cde268" d="M789.27,788.2s2.53,4.75,1.95,8.59h-20.75l4-6.51,6.88,2.57s4.34-.47,5.51-1.69c1.19-1.28,2.41-2.96,2.41-2.96Z"/>
  <path class="uuid-d3c071a0-2be8-42e0-b499-26d6e725c999" d="M1246.54,522.77c3.42,22.1-4.42,36.87,3.01,58.03,7.04,20.18,40.27,11.49,30.05,59.13-3.19,14.97,25.85,18.14,19.47,31.95-7.03,15.13,15.33,30.2,2.09,47.57-1.4,1.87-3.6,2.94-5.76,3.65-27.54,8.98-49.15-12.58-74.03-20.38-35.41-11.07-77.65,6.72-92.97,.39-26.28-10.81-31.07-49.83-16.63-64.06,5.99-5.89,14.61-8.01,21.18-13.2,31.76-25.07,4.71-116.44,50.46-134.43,17.97-7.07,58.29,.35,63.12,31.36Z"/>
  <path class="uuid-e6d664ea-dfe5-4534-b4fc-748164cde268" d="M1239.5,661.57c-36.1-27.23-31.33-26.2-28.62-66.62l-41.44-2.57c3.81,46.18-18.38,43-44.31,57.36,23.99,26.33,80.24,35.69,114.37,11.84Z"/>
  <path class="uuid-e6d664ea-dfe5-4534-b4fc-748164cde268" d="M1217.01,595.29c12.96-15.07,30.04-61.54,5.07-85.13-15.3-14.41-57.43-15.7-62.06,31.33-6.31,64.05,29.5,85.72,57,53.8Z"/>
  <path class="uuid-d3c071a0-2be8-42e0-b499-26d6e725c999" d="M1160.03,560.55c-2.41-11.89,.02-23.91,2.42-35.8,3.58-17.73,16.18-9.89,10.5-1.2-11.1,16.96-8.06,11.37-12.92,37Z"/>
  <path class="uuid-d3c071a0-2be8-42e0-b499-26d6e725c999" d="M1227.83,576.55c15.1-17.73,15.86-8.47,18.19-33.55,6.04-65.86-57.03-55.82-76.67-32.7-6.77,7.95-1.13,11.73,4.76,16.8,49.01,42.26,50-8.63,53.72,49.45Z"/>
  <path class="uuid-e6d664ea-dfe5-4534-b4fc-748164cde268" d="M1157.53,550.08c6.49-1.14,5.33,12.47,4.57,19.21-1.48,13.28-14.77-17.42-4.57-19.21Z"/>
  <path class="uuid-e6d664ea-dfe5-4534-b4fc-748164cde268" d="M1235.38,558.96c-6.05-2.66-7.95,10.86-8.78,17.58-1.51,13.27,18.31-13.37,8.78-17.58Z"/>
  <path class="uuid-e0f8489c-7819-4fae-95e8-52c65d41970e" d="M1208.6,602.56c-14.2,12.77-32.85,5.25-37.22-3.53-1.74-3.41-1.76,13.64,14.09,16.78,17.51,3.47,27.23-16.93,23.14-13.25Z"/>
  <path class="uuid-e6d664ea-dfe5-4534-b4fc-748164cde268" d="M1274.89,719.11c2.48,25.18,7.37,52.15,13.03,77.69h-27.67c-7.01-21.34-14.51-48.08-23.47-86.17,13.95-2.67,22.55-1.28,36.73-.23,.93,5.58,1.92,11.16,2.85,16.75l-1.46-8.03Z"/>
  <path class="uuid-e6d664ea-dfe5-4534-b4fc-748164cde268" d="M1091.31,711.56c-1.87,27.6-6.56,57.44-12.06,85.24h26.62c7.1-22.86,14.48-51.65,23.3-94.93-14-2.23-15.09-1.41-29.18,.09-.78,5.62-9.09,12.07-9.87,17.67l1.19-8.06Z"/>
  <path class="uuid-1db2686c-5a8b-4754-afe9-687fd98e09cd" d="M1243.17,652.68c23.82,5.88,21.67,4.47,42.01,91.94,1.62,7.06-18.84,17.5-48.23,16.27-17.26-41.7-33.65-74.31-22.68-96.49,3.96-8.01,24.19-12.88,28.9-11.72Z"/>
  <path class="uuid-1db2686c-5a8b-4754-afe9-687fd98e09cd" d="M1136.58,645.54c-24.46,.96-23.66-1.66-59.87,79.66-3.52,7.93,25.43,23.57,45.7,27.75,24.72-37.46,46.92-66.17,40.32-90.11-2.4-8.67-21.33-17.47-26.16-17.3Z"/>
  <path class="uuid-135c06b2-5705-41ea-8b84-c620b984c9d4" d="M1212.41,636.99c-7.02,14.34-45.3,20.6-52.57-4.48-25.05,7.47-34.35,13.96-34.35,13.96-2.23,23.53-24.53,119.22-13.07,150.33h134.11c10.05-37.66,3.33-140.91,3.09-142.48,0,0-13.42-4.69-37.21-17.33Z"/>
  <g>
    <rect class="uuid-109de2bb-89f6-44bc-b0ec-b6b7b9f0de90" x="473.71" y="1260.21" width="1441.44" height="55.44"/>
    <polygon class="uuid-12fcc3f5-4a1e-4629-9d66-746bd06e86fb" points="582.42 1225.56 521.36 1225.56 513.57 1260.21 591.52 1260.21 582.42 1225.56"/>
    <polygon class="uuid-12fcc3f5-4a1e-4629-9d66-746bd06e86fb" points="664.94 1225.56 603.88 1225.56 596.08 1260.21 674.03 1260.21 664.94 1225.56"/>
    <polygon class="uuid-12fcc3f5-4a1e-4629-9d66-746bd06e86fb" points="747.44 1225.56 686.39 1225.56 678.59 1260.21 756.55 1260.21 747.44 1225.56"/>
    <polygon class="uuid-12fcc3f5-4a1e-4629-9d66-746bd06e86fb" points="829.96 1225.56 768.88 1225.56 761.11 1260.21 839.06 1260.21 829.96 1225.56"/>
    <polygon class="uuid-12fcc3f5-4a1e-4629-9d66-746bd06e86fb" points="912.46 1225.56 851.39 1225.56 843.61 1260.21 921.57 1260.21 912.46 1225.56"/>
    <polygon class="uuid-12fcc3f5-4a1e-4629-9d66-746bd06e86fb" points="994.98 1225.56 933.91 1225.56 926.1 1260.21 1004.06 1260.21 994.98 1225.56"/>
    <polygon class="uuid-12fcc3f5-4a1e-4629-9d66-746bd06e86fb" points="1077.49 1225.56 1016.41 1225.56 1008.61 1260.21 1086.58 1260.21 1077.49 1225.56"/>
    <polygon class="uuid-12fcc3f5-4a1e-4629-9d66-746bd06e86fb" points="1160 1225.56 1098.93 1225.56 1091.13 1260.21 1169.09 1260.21 1160 1225.56"/>
    <polygon class="uuid-12fcc3f5-4a1e-4629-9d66-746bd06e86fb" points="1242.51 1225.56 1181.44 1225.56 1173.64 1260.21 1251.59 1260.21 1242.51 1225.56"/>
    <polygon class="uuid-12fcc3f5-4a1e-4629-9d66-746bd06e86fb" points="1325 1225.56 1263.95 1225.56 1256.15 1260.21 1334.11 1260.21 1325 1225.56"/>
    <polygon class="uuid-12fcc3f5-4a1e-4629-9d66-746bd06e86fb" points="1407.52 1225.56 1346.46 1225.56 1338.66 1260.21 1416.62 1260.21 1407.52 1225.56"/>
    <polygon class="uuid-12fcc3f5-4a1e-4629-9d66-746bd06e86fb" points="1490.04 1225.56 1428.96 1225.56 1421.18 1260.21 1499.14 1260.21 1490.04 1225.56"/>
    <polygon class="uuid-12fcc3f5-4a1e-4629-9d66-746bd06e86fb" points="1572.54 1225.56 1511.47 1225.56 1503.69 1260.21 1581.65 1260.21 1572.54 1225.56"/>
    <polygon class="uuid-12fcc3f5-4a1e-4629-9d66-746bd06e86fb" points="1696.64 1225.56 1635.57 1225.56 1627.76 1260.21 1705.72 1260.21 1696.64 1225.56"/>
    <polygon class="uuid-12fcc3f5-4a1e-4629-9d66-746bd06e86fb" points="1779.14 1225.56 1718.07 1225.56 1710.28 1260.21 1788.24 1260.21 1779.14 1225.56"/>
    <polygon class="uuid-12fcc3f5-4a1e-4629-9d66-746bd06e86fb" points="1861.64 1225.56 1800.59 1225.56 1792.79 1260.21 1870.75 1260.21 1861.64 1225.56"/>
    <polygon class="uuid-98c711b9-41da-498a-98e8-00b4880ae180" points="527.94 1225.56 527.94 1249.2 589.73 1253.32 591.52 1260.21 513.57 1260.21 521.36 1225.56 527.94 1225.56"/>
    <polygon class="uuid-98c711b9-41da-498a-98e8-00b4880ae180" points="610.46 1225.56 610.46 1249.2 672.24 1253.32 674.03 1260.21 596.08 1260.21 603.88 1225.56 610.46 1225.56"/>
    <polygon class="uuid-98c711b9-41da-498a-98e8-00b4880ae180" points="692.96 1225.56 692.96 1249.2 754.73 1253.32 756.55 1260.21 678.59 1260.21 686.39 1225.56 692.96 1225.56"/>
    <polygon class="uuid-98c711b9-41da-498a-98e8-00b4880ae180" points="775.48 1225.56 775.48 1249.2 837.24 1253.32 839.06 1260.21 761.11 1260.21 768.88 1225.56 775.48 1225.56"/>
    <polygon class="uuid-98c711b9-41da-498a-98e8-00b4880ae180" points="857.99 1225.56 857.99 1249.2 919.76 1253.32 921.57 1260.21 843.61 1260.21 851.39 1225.56 857.99 1225.56"/>
    <polygon class="uuid-98c711b9-41da-498a-98e8-00b4880ae180" points="940.5 1225.56 940.5 1249.2 1002.26 1253.32 1004.06 1260.21 926.1 1260.21 933.91 1225.56 940.5 1225.56"/>
    <polygon class="uuid-98c711b9-41da-498a-98e8-00b4880ae180" points="1022.99 1225.56 1022.99 1249.2 1084.77 1253.32 1086.58 1260.21 1008.61 1260.21 1016.41 1225.56 1022.99 1225.56"/>
    <polygon class="uuid-98c711b9-41da-498a-98e8-00b4880ae180" points="1105.51 1225.56 1105.51 1249.2 1167.29 1253.32 1169.09 1260.21 1091.13 1260.21 1098.93 1225.56 1105.51 1225.56"/>
    <polygon class="uuid-98c711b9-41da-498a-98e8-00b4880ae180" points="1188.02 1225.56 1188.02 1249.2 1249.8 1253.32 1251.59 1260.21 1173.64 1260.21 1181.44 1225.56 1188.02 1225.56"/>
    <polygon class="uuid-98c711b9-41da-498a-98e8-00b4880ae180" points="1270.53 1225.56 1270.53 1249.2 1332.31 1253.32 1334.11 1260.21 1256.15 1260.21 1263.95 1225.56 1270.53 1225.56"/>
    <polygon class="uuid-98c711b9-41da-498a-98e8-00b4880ae180" points="1353.04 1225.56 1353.04 1249.2 1414.8 1253.32 1416.62 1260.21 1338.66 1260.21 1346.46 1225.56 1353.04 1225.56"/>
    <polygon class="uuid-98c711b9-41da-498a-98e8-00b4880ae180" points="1435.56 1225.56 1435.56 1249.2 1497.31 1253.32 1499.14 1260.21 1421.18 1260.21 1428.96 1225.56 1435.56 1225.56"/>
    <polygon class="uuid-98c711b9-41da-498a-98e8-00b4880ae180" points="1518.06 1225.56 1518.06 1249.2 1579.83 1253.32 1581.65 1260.21 1503.69 1260.21 1511.47 1225.56 1518.06 1225.56"/>
    <polygon class="uuid-98c711b9-41da-498a-98e8-00b4880ae180" points="1642.15 1225.56 1642.15 1249.2 1703.93 1253.32 1705.72 1260.21 1627.76 1260.21 1635.57 1225.56 1642.15 1225.56"/>
    <polygon class="uuid-98c711b9-41da-498a-98e8-00b4880ae180" points="1724.66 1225.56 1724.66 1249.2 1786.43 1253.32 1788.24 1260.21 1710.28 1260.21 1718.07 1225.56 1724.66 1225.56"/>
    <polygon class="uuid-98c711b9-41da-498a-98e8-00b4880ae180" points="1807.17 1225.56 1807.17 1249.2 1868.95 1253.32 1870.75 1260.21 1792.79 1260.21 1800.59 1225.56 1807.17 1225.56"/>
  </g>
  <g>
    <rect class="uuid-090abecc-a9f0-472e-8851-1535fb7991ec" x="1819.97" y="1094.77" width="153.01" height="25.71"/>
    <path class="uuid-019354de-4a59-47df-9a70-c8bff92ea507" d="M2004.47,1347.99h-11.99c-31.75-84.03-47.59-171.72-39.99-260.27,3.91-.26,18.14-.83,27.16,1.32-12.39,83.97-1.43,174.67,24.82,258.95Z"/>
    <polygon class="uuid-019354de-4a59-47df-9a70-c8bff92ea507" points="1802.43 1347.99 1813.35 1347.99 1826.65 1094.77 1802.43 1094.77 1802.43 1347.99"/>
    <path class="uuid-f339803a-8dd5-4fb1-9d0b-598049bfecf0" d="M1952.66,1110.8h-141.97c-10.2,0-18.47-8.27-18.47-18.48v-7.19h186.12c0,14.18-11.5,25.67-25.68,25.67Z"/>
    <path class="uuid-2b1eaf5f-ade4-485f-b10a-453762016001" d="M1951.45,1065.7h-129.59c-10.73,0-19.43,8.7-19.43,19.43h168.43c0-10.73-8.69-19.43-19.42-19.43Z"/>
    <path class="uuid-f339803a-8dd5-4fb1-9d0b-598049bfecf0" d="M1960.51,1109.84s.09,.02,.13,.02c14.42,1.73,27.04-9.41,26.41-23.34-3.88-87.77,14.03-179.77,46.07-264.86-3.22-1.74-6.44-3.49-9.66-5.24-42.57,93.45-65.88,192.26-62.96,293.42Z"/>
    <rect class="uuid-090abecc-a9f0-472e-8851-1535fb7991ec" x="1806.36" y="1152.97" width="168.4" height="13.82"/>
  </g>
  <g>
    <path class="uuid-0fa74bdc-7a7c-4626-a6f6-3936eb4fdcce" d="M1876.21,707.59s19.79,16.44-2.01,37.34c0,0,18.71,6.53,24.77,2.09,0,0-1.27,2.25-2.38,3.24,0,0,19.15,1.74,27.41-3.82,8.26-5.55,8.52-104.02-45.34-95.96,0,0-44.98-5.87-43.63,46.6,1.37,52.47-15.69,51.55-15.69,51.55,0,0,4.62,2.59,6.9,2.71,0,0,3.41-1.08,4.18-2.9,0,0-.82,2.87-1.73,3.74,0,0,18.31,2.75,27.87-3.69,9.57-6.44,21.68-29.99,19.64-40.9Z"/>
    <path class="uuid-d3c071a0-2be8-42e0-b499-26d6e725c999" d="M1879.11,734.41s15.37-14.64,21.74-28.86c4.55-10.15,26.49-51.25-14.51-55.49,0,0-29.27-1.37-41.89,3.22-10.05,3.65-25.58,13.07-20.32,50.91l.7,12.51,54.29,17.72Z"/>
    <path class="uuid-e6d664ea-dfe5-4534-b4fc-748164cde268" d="M1627.02,1333.73c8.69,0,26.6,2.26,34.46-7.31,7.88-9.59,24.88-14.29,27.05-17.35,1.18-1.66-.38-9-2.06-15.44-4.24-5.82,2.59-13.78,2.59-13.78l-22.77,1.53s-10.85,14.4-18.84,25.97c-3.04,4.39-12.18,11-17.69,12.96-7.11,2.55-14.2,4.13-16.8,6.66-4.61,4.5,5.36,6.77,14.05,6.75Z"/>
    <path class="uuid-ef60d5b2-bac7-4f15-b3d7-3eaa15bccf5e" d="M1627.02,1333.73c8.69,0,26.6,2.26,34.46-7.31,7.88-9.59,24.88-14.29,27.05-17.35,1.18-1.66,1.23-8.33-2.06-15.44h0s-14.34,5.86-22.44,17.11c-8.1,11.25-29.66,16.14-34.2,9.66l-.07-.08c-7.11,2.55-14.2,4.13-16.8,6.66-4.61,4.5,5.36,6.77,14.05,6.75Z"/>
    <polygon class="uuid-423d5354-d654-4627-836e-06d0e1413a9e" points="1688.53 1309.07 1679.8 1327.7 1673.99 1328.34 1674.86 1311.73 1688.53 1309.07"/>
    <path class="uuid-d3c071a0-2be8-42e0-b499-26d6e725c999" d="M1859.05,978.97s-126.67,39.23-153.93,61.88c-27.25,22.65-46.24,247.37-46.24,247.37,0,0,3.26,1.97,9.92,1.82,6.19-.15,19.18-5.5,19.18-5.5,0,0,55.66-106.73,57.26-131.99,1.59-25.25-2.47-47.07,8.44-49.11,10.91-2.02,150.12-2.76,166.04-41.97,15.93-39.21-5.95-73.1-5.95-73.1l-54.73-9.39Z"/>
    <path class="uuid-e6d664ea-dfe5-4534-b4fc-748164cde268" d="M1656.4,1333.73c8.69,0,26.6,2.26,34.46-7.31,7.88-9.59,24.88-14.29,27.04-17.35,1.17-1.66-.38-9-2.06-15.44-4.24-5.82,2.59-13.78,2.59-13.78l-22.77,1.53s-10.85,14.4-18.84,25.97c-3.03,4.39-12.17,11-17.68,12.96-7.11,2.55-14.2,4.13-16.8,6.66-4.62,4.5,5.36,6.77,14.05,6.75Z"/>
    <path class="uuid-d3c071a0-2be8-42e0-b499-26d6e725c999" d="M1656.4,1333.73c8.69,0,26.6,2.26,34.46-7.31,7.88-9.59,24.88-14.29,27.04-17.35,1.17-1.66,1.23-8.33-2.06-15.44h0s-14.34,5.86-22.44,17.11c-8.09,11.25-29.65,16.14-34.19,9.66l-.07-.08c-7.11,2.55-14.2,4.13-16.8,6.66-4.62,4.5,5.36,6.77,14.05,6.75Z"/>
    <polygon class="uuid-d3c071a0-2be8-42e0-b499-26d6e725c999" points="1717.91 1309.07 1709.18 1327.7 1703.37 1328.34 1704.23 1311.73 1717.91 1309.07"/>
    <path class="uuid-4c4a45f0-b615-460f-b3b0-0c205a7babdb" d="M1892.2,990.83s-130.43,27.37-157.68,50.02c-27.26,22.65-46.25,247.37-46.25,247.37,0,0,3.26,1.97,9.92,1.82,6.19-.15,19.18-5.5,19.18-5.5,0,0,55.67-106.73,57.25-131.99,1.6-25.25-2.47-47.07,8.45-49.11,10.91-2.02,150.12-2.76,166.04-41.97,15.92-39.21-5.95-73.1-5.95-73.1l-50.96,2.47Z"/>
    <path class="uuid-e6d664ea-dfe5-4534-b4fc-748164cde268" d="M1843.2,780.4c-.17,.07,15.18,8.04,26.72,4.89,10.86-2.96,17.96-17.04,17.8-17.08-4.6-.91-5.91-7.23-5.82-34.38l-2.08,.41-34.94,6.93s.79,11,.81,21.36c.03,8.69-.49,16.94-2.48,17.87Z"/>
    <path class="uuid-e0f8489c-7819-4fae-95e8-52c65d41970e" d="M1844.87,741.16s.79,11,.81,21.36c19.56-.56,29.91-18.4,34.13-28.29l-34.94,6.93Z"/>
    <path class="uuid-e6d664ea-dfe5-4534-b4fc-748164cde268" d="M1838.34,750.97s46.27,.76,46.29-28.06c.03-28.82,6.03-48.13-23.51-49.84-29.54-1.7-35.29,9.29-37.65,18.91-2.35,9.62,2.82,58.05,14.86,58.99Z"/>
    <path class="uuid-135c06b2-5705-41ea-8b84-c620b984c9d4" d="M1946.22,904.88c4.57-19.14-10.96-56.28-27.17-87.02-14.7-27.86-29.96-50.47-31.34-49.66-38.78,23.02-42.29,3.88-42.29,3.88h0s-34.81,2.69-35.14,11.96c-.49,13.98,22.26,125.51,17.85,159.16-3.06,23.37-34.35,53.42-16.5,54.83,13.4,1.05,31.57-13.9,63.49-.07,20.93,9.08,49.98,22.22,69.54,24.5,10.26,1.21,17.91-.58,20.42-7.51,7.25-20.13-27.57-73.59-18.87-110.07Z"/>
    <path class="uuid-5b6890bd-56fb-46d9-9304-33b97474da71" d="M1848.62,733.49s-.86,3.66-9.97,3.1c0,0-7.65-.48-7.42-4.5,0,0,7.42-2.86,17.39,1.4Z"/>
    <path class="uuid-e6d664ea-dfe5-4534-b4fc-748164cde268" d="M1923.92,943.2l-72.1,54.83,13.28,10.46s98.16-41.73,100.87-49.89c2.71-8.18-42.05-15.4-42.05-15.4Z"/>
    <path class="uuid-d3c071a0-2be8-42e0-b499-26d6e725c999" d="M1843.04,662.71s14.76,41.41,35.97,48.11c21.2,6.7,28.06-1.78,28.06-1.78,0,0-15.78-14.01-17.96-37.07,0,0-34.53-26.48-46.07-9.26Z"/>
    <path class="uuid-d3c071a0-2be8-42e0-b499-26d6e725c999" d="M1846.35,665.94s-10.93,7.78-13.92,15.76c-3,7.98-5.07,24.63-9.9,23.8,0,0-9.16-26,3.49-39.74,13.41-14.57,20.33,.18,20.33,.18Z"/>
    <path class="uuid-d3c071a0-2be8-42e0-b499-26d6e725c999" d="M1844.33,667.09s7.85,39.72,34.3,53.74c0,0-25.82-25.55-26.72-51.53-.89-25.98-7.58-2.21-7.58-2.21Z"/>
    <path class="uuid-d3c071a0-2be8-42e0-b499-26d6e725c999" d="M1924,746.45c-8.24,5.55-27.41,3.82-27.41,3.82,1.12-.98,2.38-3.24,2.38-3.24-11.3,5.61-33.53-5.3-33.53-5.3,19.67,.07,19.67-28.33,13.55-30.91,.86-21.22-.8-48.27-1.69-60.44,.86,.05,1.34,.12,1.34,.12,53.86-8.07,53.58,90.4,45.34,95.96Z"/>
    <path class="uuid-e6d664ea-dfe5-4534-b4fc-748164cde268" d="M1851.81,998.03s-28.35,5.95-33.62,9.63c-5.26,3.69-15.91,14.66-16.38,16.25-.47,1.61,4.55,.31,7.37-2.48,3.63-3.61,11.16-5.88,11.16-5.88,0,0-12.04,10.39-14.65,13.77-.25,.34-.07,.83,.35,.9,1.17,.21,3.49-.53,6.28-2.61,4.01-2.96,11.69-6.99,11.69-6.99l-13.69,11.83c-.16,.14-.21,.4-.11,.58,.43,.72,2.1,.85,5.81-.96,2.86-1.4,11.58-7.95,11.58-7.95l-6.02,9.04s2.85,.34,6.38-3.41c2.42-2.6,10.03-9.59,12.3-10.27,2.27-.67,14.66-2.25,18.84-5.84,4.18-3.58,5.97-5.15,5.97-5.15l-13.28-10.46Z"/>
    <path class="uuid-135c06b2-5705-41ea-8b84-c620b984c9d4" d="M1965.96,958.6c-24.51,1.82-36.48-10.19-42.05-15.4,1.63-4.24-24.12-96.05-24.12-104.66s-12.08-70.34-12.08-70.34c0,0,37.7,2.33,50.77,20.54,16.32,22.77,44.5,136.01,27.47,169.86Z"/>
    <path class="uuid-e6d664ea-dfe5-4534-b4fc-748164cde268" d="M1793.28,932.4l-8.69,60.83,11.24,9.48s26.59-48.15,30.66-73.95l-33.21,3.64Z"/>
    <path class="uuid-135c06b2-5705-41ea-8b84-c620b984c9d4" d="M1812.53,780.31c.12-.83-11.73,10.9-13.04,24.79-2.85,29.87,.65,82.44-3.65,101-3.11,13.4-9.46,46.97-9.46,46.97,0,0,14.62,11.65,36.68,5.71,22.06-5.94-10.53-178.47-10.53-178.47Z"/>
    <path class="uuid-e6d664ea-dfe5-4534-b4fc-748164cde268" d="M1784.14,992.97s-24.48,6.07-28.94,9.46c-4.46,3.37-13.37,13.25-13.72,14.67-.35,1.41,3.96,.12,6.33-2.42,3.04-3.26,9.52-5.47,9.52-5.47,0,0-10.14,9.44-12.3,12.45-.22,.3-.03,.72,.33,.78,1.03,.12,3.03-.58,5.39-2.48,3.4-2.71,9.94-6.46,9.94-6.46l-11.54,10.73c-.14,.13-.17,.35-.07,.52,.4,.62,1.86,.66,5.03-1.03,2.44-1.31,9.8-7.29,9.8-7.29l-4.94,8.06s2.48,.22,5.43-3.18c2.03-2.32,8.42-8.65,10.38-9.31,1.96-.67,12.67-2.44,16.2-5.68,3.51-3.26,5.03-4.68,5.03-4.68l-11.88-8.67Z"/>
    <path class="uuid-e6d664ea-dfe5-4534-b4fc-748164cde268" d="M1796.02,1001.64s.31,4.12-7.76,8.66c-8.07,4.53-13.23,7.73-13.77,6.67-.56-1.08,8.15-10.08,8.15-10.08l13.38-5.25Z"/>
    <path class="uuid-d3c071a0-2be8-42e0-b499-26d6e725c999" d="M1847.26,711.42c2.28,.28,5.12-8.51-.43-9.2-2.98-.35-3.31,8.73,.43,9.2Z"/>
    <path class="uuid-d3c071a0-2be8-42e0-b499-26d6e725c999" d="M1828.52,709.2c-2.29-.28-3.04-9.49,2.52-8.81,2.96,.35,1.24,9.29-2.52,8.81Z"/>
    <path class="uuid-d3c071a0-2be8-42e0-b499-26d6e725c999" d="M1845.83,694.01c-3.7-.32-3.95,2.74-1.37,3.89,.76,.34,15.35,5.12,14.79,4.11-1.04-2.07-6.43-7.39-13.42-8Z"/>
    <path class="uuid-d3c071a0-2be8-42e0-b499-26d6e725c999" d="M1835.49,691.93c3.69,.41,3.38,3.47,.62,4.07-1.3,.29-16.17,2.11-15.13,.93,1.73-1.91,7.77-5.77,14.52-5Z"/>
    <path class="uuid-e0f8489c-7819-4fae-95e8-52c65d41970e" d="M1829.59,722.85c7.09,4.81,7.35,.9,5.02,.6-7.8-.98,.61-2.9,3.59-15.98,.3-1.37-1.25-1.7-1.64-.6-.28,.76-.95,3.64-1.31,4.43-4.3,9.81-7.92,10-5.65,11.55Z"/>
  </g>
  <g>
    <path class="uuid-e6d664ea-dfe5-4534-b4fc-748164cde268" d="M324.07,632.65c4.41,.34,8.65-5.15,9.88-6.79,4.68-6.24,7.67-13.57,8.87-17.68-.91-2.73-1.87-6.18-2.87-10.36-16.97-12.09-19.29-21.04-6.95-26.84,2.48,1.46,5.56,5.96,9.25,13.51,2.94-.12,5.17-1.7,6.69-4.73-3.5-12.74-5.78-23.08-6.84-31.03,8.36-13.04,27.92-14.9,53.8-11.38,1.2,7.24,2.19,14.9,2.96,22.98,4.58,4.43,3.99,20.84-.23,39.75,2.11,10.75-4.22,16.62-18.98,17.6-.14,2.6,.09,5.59,.13,7.4,.04,1.65,.09,4.88,1.74,5.37l2.73,.72c-.28,38.44-19.03,45.84-60.18,1.47Z"/>
    <path class="uuid-d3c071a0-2be8-42e0-b499-26d6e725c999" d="M395.9,537.36c-25.89-3.53-45.44-1.66-53.8,11.38,1.06,7.95,3.34,18.29,6.84,31.03-1.51,3.03-3.74,4.61-6.69,4.73-3.68-7.54-6.77-12.04-9.25-13.51-12.33,5.8-10.01,14.75,6.96,26.85,1,4.16,1.95,7.62,2.87,10.35-15.27-3.59-28.04-17.91-29.84-24.12-17.8-36.84,2.06-52.39,12.68-58.07,4.69-36.47,55.36-4.94,68.68-27.2,27.89,16.71,9.39,38.23,1.55,38.56Z"/>
    <path class="uuid-e0f8489c-7819-4fae-95e8-52c65d41970e" d="M362.63,613.94c4.14,2.15,9.81,3.39,17.01,3.74-.14,2.56-.04,5.51,.12,7.33-7.25-1.46-12.96-5.15-17.13-11.07Z"/>
    <path class="uuid-ef60d5b2-bac7-4f15-b3d7-3eaa15bccf5e" d="M293.2,1352.73c-16.08-5.95-17.37-14.64-26.04-18.88-8.72-4.28-9.73-11.89-1.19-20.17,6.3,5.28,14.12,11.78,18.26,8.34,2.77-2.3,12.14-2.15,14.01,1.2,8.17,19.93,19.53,13.61,21.77,22.68,.26,12.07-19.42,9.57-26.8,6.83Z"/>
    <path class="uuid-ef60d5b2-bac7-4f15-b3d7-3eaa15bccf5e" d="M432.54,1332.91c-28.32-.48-49.49-.83-59.27-4.07-10.55-3.5-8.37-10.26-2.31-21.06,26.69,12.88,19.58-2.65,32.07-.67,8.77,7.41,21.76,12.38,38.97,14.9,7.28,5.63,4.32,10.64-9.45,10.9Z"/>
    <path class="uuid-135c06b2-5705-41ea-8b84-c620b984c9d4" d="M418.4,637.01c-14.13-4.31-26.83-6.93-38.08-7.84-2.04,32.6-18.23,32.37-48.61-.68-29.24,2.58-34.97,2.98-51.2,8.5-35.11,35.2-38.34,75.82-56.69,122.24,20.32,.95,29.44,3.52,43.25,8.69,2.97-11.13,5.45-20.08,7.45-26.86-.56,61.21-.77,103.16-.64,125.83,67.2,27.95,122.55,18.38,145.16-3.4,.32-54.42,.75-97.49,1.3-129.23,8.04,9.94,15.49,17.65,22.36,23.13,16.47-19.82,27.64-27.81,36.98-39.5-20.68-35.64-50.32-68.81-61.28-80.89Z"/>
    <path class="uuid-e6d664ea-dfe5-4534-b4fc-748164cde268" d="M553.83,696.63c-35.31,15.39-60.02,28.11-74.15,38.17l-6.28-9.75c-5.84,6.14-12.5,12.16-20.63,20.9,7.52,8.26,15.59,15.04,24.98,20.79,24.53-2.75,51.64-22.25,81.34-58.49,9.23-1.93,16.03-5.45,20.39-10.54,.23-4.67-2.01-9.35-6.73-14.04,12.31-8.42,17.22-14.45,14.71-18.09-19.3,12.53-30.5,22.87-33.63,31.06Z"/>
    <path class="uuid-1db2686c-5a8b-4754-afe9-687fd98e09cd" d="M419.05,863.49c-1.33,5.3,4.17,36.38,5.08,52.59,8.93,57.88,1.28,133.22-3.53,230.11-8.61,34.14-21.31,79.64-20.48,143.67-14.99,4.81-20.42,5.3-33.95,1.69-9.46-66.83-3.01-120.34,5.54-145.06-5.47-38.2-13.65-80.96-25.54-142.64-13.4,67.22-31.33,117.09-39.1,149.64-1.53,36.29-8.53,85.26-12.18,146.92-11.13,3.52-18.06,4.53-29.61,3.06-14.99-56.68-12.47-118.35-6.12-185.01,6.76-80.15-4.38-170.64,6.77-202.01,5.7-18.59,6.44-35.1,7.97-49.57,56.07,19.58,104.46,18.45,145.17-3.4Z"/>
    <path class="uuid-1db2686c-5a8b-4754-afe9-687fd98e09cd" d="M284.22,804.71c-3.6,.56-7,1.05-10.21,1.5-.16,27-.21,47.23-.13,60.68,3.17,1.49,7.64,3.22,11.12,3.64-.02-1.73-.54-5.74-.56-7.44-.22-20.65-.3-40.11-.23-58.38h0Zm164.31-54.1c-9.9-8.65-19.31-22.7-28.26-42.14,1,6.77,1.41,15.83,1.2,27.18,7.61,9.27,14.69,16.51,21.23,21.73,2.02-2.43,3.95-4.68,5.82-6.78h0Zm-161.5-52.66c-4.36,14.72-8.53,29.09-12.49,43.1-.11,11.84-.21,22.95-.29,33.34,2.88-.28,6.26-.48,10.26-.58,.42-28.74,1.25-54.02,2.53-75.86Z"/>
    <path class="uuid-e6d664ea-dfe5-4534-b4fc-748164cde268" d="M230.64,759.64c-3.2,13.62-4.53,26.07-1.91,42.6,7.98,12.17,40.2,5.36,123.17-9.19,2.97,2.85,9.13,5.68,18.47,4.42,8.68-2.27,9.09-4.65,18.83-14.28,2.36-7.5,1.88-13.23-1.46-17.17-10.96,6.77-16.73,10.37-29.07,10.8,3.29-8.88,3.78-14.61,1.48-17.19-4.21,3.54-6.95,8.88-8.23,15.99-65.41-2.99-82.66-2.59-91.37,2.2,.95-4.31,1.78-8.09,2.51-11.37-10.18-3.63-18.47-5.75-32.43-6.81Z"/>
    <path class="uuid-e6d664ea-dfe5-4534-b4fc-748164cde268" d="M372.85,1293.12c.66,5.83,.76,11.05,.28,15.69,22.33,10.18,18.54-1.57,27.46-1.87-2.24-4.14-3.69-9.43-4.36-15.87-9.74,2.92-15.27,3.58-23.39,2.05h0Zm-104.06,10.73c0,4.24-.39,7.97-1.18,11.19,5.97,4.95,12.83,10.12,16.62,6.97,1.82-1.51,6.49-1.97,10.01-1.14-1.45-5.12-2.59-11.54-3.43-19.25-7.83,2.21-13.84,2.95-22.02,2.22Z"/>
    <path class="uuid-d3c071a0-2be8-42e0-b499-26d6e725c999" d="M424.12,916.09c-39.44,38.58-92.17,38.71-158.21,.37-11.16,31.37-.01,121.86-6.77,202.01-6.35,66.66-8.86,128.33,6.12,185.01,1.23,.16,2.39,.28,3.52,.38,8.18,.73,14.2,0,22.02-2.22,1.3-.36,2.64-.77,4.06-1.22,3.65-61.66,10.65-110.63,12.18-146.92,7.76-32.55,25.7-82.42,39.1-149.64,11.9,61.68,20.07,104.44,25.54,142.64-8.55,24.72-15,78.23-5.54,145.06,2.46,.66,4.66,1.18,6.7,1.56,8.11,1.53,13.65,.87,23.39-2.05,1.22-.38,2.5-.77,3.87-1.21-.83-64.03,11.88-109.53,20.48-143.67,4.81-96.88,12.46-172.23,3.53-230.11Z"/>
    <path class="uuid-ef60d5b2-bac7-4f15-b3d7-3eaa15bccf5e" d="M361.89,1245.64c14.39,4.1,27.56,5.34,39.52,3.71,.26-3.32,.55-6.57,.87-9.77-13.11,1.79-26.67,.87-40.69-2.76,.07,2.9,.16,5.84,.3,8.83h0Zm-105.13,11.49c15.65,1.97,29.51,.88,41.58-3.26,.3-3.45,.61-6.85,.92-10.2-13.55,4.64-28,6.22-43.37,4.75,.26,2.91,.56,5.81,.87,8.7h0Zm39.56,21.7c.25-3.42,.51-6.79,.77-10.12-12.08,3.47-24.86,4.58-38.35,3.34,.46,2.94,.95,5.86,1.48,8.78,13.34,1.57,25.37,.9,36.09-2h0Zm104.4-18.88c-12.2,2.11-24.87,1.88-38.03-.7,.21,2.93,.46,5.89,.73,8.88,13.45,2.99,25.74,3.52,36.88,1.6,.11-3.32,.25-6.57,.42-9.78Z"/>
    <path class="uuid-d3c071a0-2be8-42e0-b499-26d6e725c999" d="M368.95,549.97c-8.18-1.32-21.55,8.18-16.99,8.83,1.48,.21,5.47-2.52,7.02-3.05,3.12-1.05,9.29-.96,10.89-3.15,.66-.9,.12-2.46-.92-2.62Z"/>
    <path class="uuid-d3c071a0-2be8-42e0-b499-26d6e725c999" d="M381.4,551.8c1.84,1.97,7.95,1.18,11.17,1.88,1.61,.34,5.88,2.57,7.34,2.17,4.44-1.16-9.95-9.1-17.9-6.78-1.13,.35-1.37,1.92-.61,2.72Z"/>
    <path class="uuid-d3c071a0-2be8-42e0-b499-26d6e725c999" d="M362.82,569.72c-2.34,.13-4.68-8.67,1-9,3.04-.17,2.83,8.78-1,9Z"/>
    <path class="uuid-d3c071a0-2be8-42e0-b499-26d6e725c999" d="M391.96,568.11c2.35-.13,3.67-9.14-2.01-8.81-3.03,.17-1.82,9.03,2.01,8.81Z"/>
    <path class="uuid-e0f8489c-7819-4fae-95e8-52c65d41970e" d="M383.3,583.69c-.62-.81,.9-1.57,1.76-2.21,3.2-2.34,4.12-.69-4.06-14.82-1.6-2.76-2.78-4.11-1.77-4.65,.94-.49,1.19,.77,3.01,3.92,8.89,15.38,8.05,13.37,2.06,17.9-.31,.23-.77,.19-1.01-.13Z"/>
    <path class="uuid-e0f8489c-7819-4fae-95e8-52c65d41970e" d="M373.13,597.63c-1.06-1.69,1.46-1.36,16.68-3.86,4.55-.73-7.91,17.86-16.68,3.86Z"/>
  </g>
  <g>
    <path class="uuid-d83957ec-ad03-4ad7-bf64-7395d1b31cec" d="M2192.81,554.04c-.73,3.81,3.16,7.82,8.69,8.93,5.53,1.12,10.59-1.04,11.33-4.86,.72-3.81-3.16-7.81-8.69-8.93-5.53-1.18-10.6,1.05-11.33,4.86Z"/>
    <path class="uuid-e6d664ea-dfe5-4534-b4fc-748164cde268" d="M2298.19,1267.09s9.22,9.13,9.43,12.49c.21,3.35,.82,39.22-2.94,42.56-3.78,3.35-14.84,5.72-11.28,9.53,2.69,2.82,23.37,2.24,37.09,1.45,4-.2,9.01-32.59,10.59-37.32,2.31-6.89,10.59-21.94,8.5-26.73-1.02-2.37-8.6-7.76-15.46-12.22-7.24-4.73-14.15-15.3-14.15-15.3l-21.79,25.55Z"/>
    <path class="uuid-ef60d5b2-bac7-4f15-b3d7-3eaa15bccf5e" d="M2333.68,1256.59s-19.28,59.25-27.6,62.13c-2.2,.79-14.8,4.28-16.81,9.01l-.13,.46c-.64,3.02,1.89,5.77,4.97,5.77h39.5s5.6-26.73,7.81-38.49c0,0,11.73-28.71,10.43-31.33-1.3-2.63-18.16-7.55-18.16-7.55Z"/>
    <path class="uuid-e6d664ea-dfe5-4534-b4fc-748164cde268" d="M2174.75,1289.56l8.27,23.65c.61,3.81,3.03,13,3.03,16.42,0,12.81-56.92-10.83-44.17-16.48,1.16-.53,4.79-4.66,5.17-9,.58-6.7-4.8-15.11-4.8-15.11l32.51,.53Z"/>
    <path class="uuid-ef60d5b2-bac7-4f15-b3d7-3eaa15bccf5e" d="M2189.29,1333.91l-6.53-20.89s-13.69,5.84-20.53,4.86c-6.84-.99-20.2-4.86-20.2-4.86-27.32,9.06-49.71,13.53-45.63,20.89h92.89Z"/>
    <path class="uuid-d3c071a0-2be8-42e0-b499-26d6e725c999" d="M2105.73,834.8l-10.99,59.85s-27.31,190.1-24.76,202.97c6.22,31.47,69.09,202.65,69.09,202.65l40.27-5.12-44.2-202.45,73.65-190.17-103.06-67.73Z"/>
    <path class="uuid-4c4a45f0-b615-460f-b3b0-0c205a7babdb" d="M2179.49,867.97l29.46,34.36,28.9,179.86,90.93,167.77s-13.68,21.01-28.35,24.3l-129.07-169.54-69.95-212.31,2.45-47.16,75.62,22.73Z"/>
    <path class="uuid-e6d664ea-dfe5-4534-b4fc-748164cde268" d="M1966.74,667.52c.59-1.78,6.52-12.75,6.52-12.75,0,0,.3-18.19-.21-18.46-10.13-4.27-20.3,.26-21.7,10.64v.33c-.33,19.51,9.89,37.57,26.52,46.9,3.8,2.11,7.81,4.33,11.93,6.64,.23-7.82,1.3-15.5,3.78-22.92-15.13-5.26-27.04-9.72-26.84-10.38Z"/>
    <path class="uuid-1db2686c-5a8b-4754-afe9-687fd98e09cd" d="M2148.09,669.19c0-.98-110.6,28.78-110.6,28.78,0,0-16.09-6.76-44.69-16.8-2.95,8.87-4.35,18.06-4.81,27.32,26.55,15.24,34.09,25.93,41.63,27.91,14.03,3.54,94.04-8.22,94.04-8.22,0,0,24.44-58.27,24.44-58.99Z"/>
    <path class="uuid-135c06b2-5705-41ea-8b84-c620b984c9d4" d="M2075.69,896.87c.31-1.58,2.99-76,20.61-137.42,13.65-47.63,41.46-85.01,51.22-90.19,3.61-1.97,30.57,.39,30.57,.39l-14.11,12.42c-15.04,14.78-22.68,29.82-33.23,48.68-30.6,54.78-16.31,190.17-19.21,190.03-3.23-.2-37.06-17.67-35.86-23.91Z"/>
    <polygon class="uuid-5b6890bd-56fb-46d9-9304-33b97474da71" points="2102.06 619.4 2097.5 796.45 1968.37 782.44 1971.39 725.14 1970.34 609.51 2102.06 619.4"/>
    <g class="uuid-67838d15-b72e-458c-b605-d79065f23f96">
      <polygon class="uuid-2b4a8493-fd66-48de-ac8d-f18bf9f121ef" points="2094.8 796.16 1968.37 782.44 1971.39 725.14 1970.36 611.09 2099.31 620.77 2094.8 796.16"/>
    </g>
    <path class="uuid-d3c071a0-2be8-42e0-b499-26d6e725c999" d="M2196.84,520.52s23.28-17.01,33.9,11.58c0,0,13.26-4.49,19.27,9.5,0,0,22.85-2.34,21.72,31.95,0,0,11.51,.08,10.37,13.91-1.13,13.9-9.57,21.59-9.57,21.59,0,0,5.31,6.05,.09,17.96-4.43,10.11-13.28,10.02-13.28,10.02,0,0-5.74,17.45-14.3,21.25-8.57,3.88-18.33-.78-18.33-.78,0,0-4.58,9.15-13.21,6.48-8.63-2.68-17.87-13.48-28.45-11.57-10.59,1.81-35.34-7.44-35.34-7.44,0,0-26.16-18.91-11.79-47.42,0,0-12.39-17.01,4.02-31.18,0,0-4.6-28.24,17.44-39.82,22.04-11.66,37.48-6.05,37.48-6.05Z"/>
    <path class="uuid-00b582ab-9d71-4086-83db-477524a2666d" d="M2173.91,669.12l35.24,2.11s9.34,11.56,9.66,11.63c3.71,.72-12.8,146.75-16.12,200.88-3.33,54.2-16.98,39.02-16.98,39.02,0,0-37.64,13.93-72.08,3.61-35.8-10.71-23.62-56.03-23.62-56.03,0,0,22.36-99.26,34.62-129.61,12.24-30.47,49.29-71.6,49.29-71.6Z"/>
    <path class="uuid-e6d664ea-dfe5-4534-b4fc-748164cde268" d="M2181.25,645.54l-5.54,16.75-.99,2.95s-11.53,27.98-4.97,35.15c6.56,7.16,39.4-29.17,39.4-29.17l7.14-51.7-35.04,26.01Z"/>
    <path class="uuid-d04b4b44-5438-4c05-9a47-b7999bca4328" d="M2213.95,636.35c-9.66,16.23-26.76,23.91-38.23,25.88l5.53-16.69,35.04-26.01-2.34,16.81Z"/>
    <path class="uuid-e6d664ea-dfe5-4534-b4fc-748164cde268" d="M2208.97,562.06c-14.46-8.68-33.02-1.38-38.54,14.58-2.4,6.89-5.05,15.69-7.11,25.55-4.95,23.52,2.53,48.94,12.97,51.11,10.43,2.1,42.21-7.36,49.69-40.73,4.61-20.56-1.83-41.45-17-50.51Z"/>
    <path class="uuid-e6d664ea-dfe5-4534-b4fc-748164cde268" d="M2217.77,613.69c-1,5.19,1.55,10.12,5.69,10.97,4.15,.85,8.32-2.7,9.32-7.95,1-5.18-1.55-10.12-5.69-10.96-4.15-.86-8.32,2.69-9.32,7.95Z"/>
    <path class="uuid-d3c071a0-2be8-42e0-b499-26d6e725c999" d="M2166.02,541.1c-12.46,6.64-18.8,19.18-14.16,28.11,4.65,8.93,18.51,10.77,30.98,4.2,12.46-6.56,18.8-19.18,14.15-28.11-4.64-8.93-18.51-10.77-30.98-4.2Z"/>
    <path class="uuid-d3c071a0-2be8-42e0-b499-26d6e725c999" d="M2157.4,577.36c-.95,4.92,2.12,9.65,6.83,10.64,4.72,.92,9.31-2.23,10.25-7.16,.94-4.93-2.11-9.66-6.83-10.64-4.72-.92-9.31,2.24-10.25,7.16Z"/>
    <path class="uuid-d3c071a0-2be8-42e0-b499-26d6e725c999" d="M2193.49,561.77c-1.41,7.36,3.17,14.43,10.22,15.9,7.05,1.37,13.91-3.34,15.32-10.7,1.4-7.36-3.16-14.43-10.22-15.9-7.06-1.38-13.92,3.33-15.32,10.7Z"/>
    <path class="uuid-d3c071a0-2be8-42e0-b499-26d6e725c999" d="M2212.29,573.01c-1.41,7.36,3.17,14.43,10.22,15.9,7.05,1.37,13.92-3.34,15.32-10.7,1.41-7.36-3.16-14.43-10.22-15.9-7.05-1.38-13.92,3.33-15.32,10.7Z"/>
    <path class="uuid-d3c071a0-2be8-42e0-b499-26d6e725c999" d="M2214.53,592.49c-.97,7.37,2.17,14.44,7.01,15.91,4.84,1.37,9.54-3.34,10.5-10.7,.97-7.36-2.16-14.43-7.01-15.9-4.84-1.37-9.54,3.34-10.5,10.69Z"/>
    <path class="uuid-135c06b2-5705-41ea-8b84-c620b984c9d4" d="M2209.15,671.23s34.18,5.65,43.54,14.19c5.94,5.39-4.78,68.91-4.78,68.91,0,0-19.4,61.35-20.93,79.94-5.16,63.26-2.52,121.07-5.59,123.17-17.96,7.09-80.54-1.97-83.19-9.2-29.24-79.75,70.95-277.02,70.95-277.02Z"/>
    <path class="uuid-e6d664ea-dfe5-4534-b4fc-748164cde268" d="M2243.25,751.76s-65.85,92.23-83.55,98.21c-17.72,5.91-48.56-117.52-48.56-117.52,0,0-23.27-25.95-25.22-26.8-3.52,10.68,25.41,13.69,18.33,.79l7.09-15.55c-8.74-12.95,2.78-15.97,10.25,1.96,6.25,14.97,9.13,35.86,12.23,40.26l32.01,48.08,44.91-64.12,32.51,34.69Z"/>
    <path class="uuid-1db2686c-5a8b-4754-afe9-687fd98e09cd" d="M2132.21,725.62l-19.15,21.15s24.67,110.88,43.15,111.54c18.47,.59,82.47-88.41,96.33-114.3,13.87-25.82,10.91-52.16-1.7-60.43-12.63-8.22-31.08,12.15-38.58,20.88-7.5,8.8-46.43,76.72-46.43,76.72l-33.62-55.57Z"/>
    <path class="uuid-e6d664ea-dfe5-4534-b4fc-748164cde268" d="M1955.81,646.1s-.85-4.4-.76-6.83c.07-2.5,16.01-5.72,20.15-.33,4.15,5.31-11.78,5.91-19.39,7.16Z"/>
    <path class="uuid-e6d664ea-dfe5-4534-b4fc-748164cde268" d="M1953.45,655.3s-2.19-4.73-2.11-7.22c.07-2.5,20.89-5.65,25.05-.26,4.15,5.39-15.33,6.3-22.94,7.48Z"/>
    <path class="uuid-e6d664ea-dfe5-4534-b4fc-748164cde268" d="M1957.54,663.7s-2.2-4.79-2.12-7.29c.07-2.43,16.01-5.65,20.17-.33,4.15,5.39-10.45,6.37-18.05,7.62Z"/>
    <path class="uuid-e6d664ea-dfe5-4534-b4fc-748164cde268" d="M2117.21,693.18l-4.62-1.84c-1.32-.39-2.58-.99-3.78-1.78-4.77-2.89-17.91-10.57-19.93-8.08-2.48,3.08,17.77,14.65,17.77,14.65,0,0-22.68-11.3-24.01-7.16-1.34,4.13,22.04,14.51,22.04,14.51,0,0-20.77-7.95-21.91-5.72-1.14,2.24,22.87,17.87,22.87,17.87,0,0-19.68-12.03-22.68-9.92-2.98,2.04,30.51,35.2,30.51,35.2l3.74-47.75Z"/>
    <path class="uuid-e6d664ea-dfe5-4534-b4fc-748164cde268" d="M1957.54,663.7s13.77-2.76,16.15,.4c2.38,3.15-13.88,8.79-13.88,8.79l.38,4.21s-6.18-9.46-2.64-13.41Z"/>
    <path class="uuid-d3c071a0-2be8-42e0-b499-26d6e725c999" d="M2195.07,612.5c2.11,.65,6.28-7.21,1.14-8.78-2.75-.84-4.59,7.7-1.14,8.78Z"/>
    <path class="uuid-d3c071a0-2be8-42e0-b499-26d6e725c999" d="M2168.25,604.82c-2.11-.66-1.28-9.51,3.87-7.93,2.75,.83-.38,9.01-3.87,7.93Z"/>
    <path class="uuid-d3c071a0-2be8-42e0-b499-26d6e725c999" d="M2196.63,595.77c-3.45-.92-4.2,1.93-1.93,3.45,.66,.45,13.68,7.43,13.32,6.39-.64-2.14-4.85-8.09-11.38-9.85Z"/>
    <path class="uuid-d3c071a0-2be8-42e0-b499-26d6e725c999" d="M2177.75,589.63c3.43,1.02,2.62,3.86-.1,3.96-1.28,.05-15.67-.72-14.48-1.66,1.95-1.51,8.33-4.17,14.58-2.3Z"/>
    <path class="uuid-e0f8489c-7819-4fae-95e8-52c65d41970e" d="M2171.97,620.87c7.42,3.6,7.12-.16,4.85-.12-7.55,.13,.19-2.85,1.22-15.72,.1-1.35-1.42-1.45-1.65-.35-.16,.76-.4,3.59-.64,4.41-2.74,9.94-6.15,10.61-3.78,11.77Z"/>
    <path class="uuid-5b6890bd-56fb-46d9-9304-33b97474da71" d="M2169.01,626.26c6.71,21.29,20.78,5.75,17.85,4.7-14.92-5.34-18.68-7.3-17.85-4.7Z"/>
  </g>
</svg>